<?xml version="1.0" encoding="utf-8"?>
<!-- Generator: Adobe Illustrator 28.2.0, SVG Export Plug-In . SVG Version: 6.00 Build 0)  -->
<svg version="1.1" id="uuid-fbeb5ef1-9bdf-4d56-98cb-406180e1c606"
	 xmlns="http://www.w3.org/2000/svg" xmlns:xlink="http://www.w3.org/1999/xlink" x="0px" y="0px" viewBox="0 0 1920 1080"
	 style="enable-background:new 0 0 1920 1080;" xml:space="preserve">
<style type="text/css">
	.st0{fill:#FFFFFF;}
</style>
<path class="st0" d="M1237.2,500.7c-6.8-6.8-15-8.8-23.7-9.5c-7.6-0.6-15,0.9-22.1,3.3c-4.6,1.5-8.2,0.3-11.8-1.8
	c-2.1-1.2-5.7-1.9-5.7-4.7c0-2.8,3.6-3,5.7-3.9c18.6-8.5,37.9-10.6,58-5.6c6.7,1.7,13.1,4.2,19.1,7.6c2.9,1.7,4.5,0.7,6.1-1.5
	c7.5-9.7,10.4-20.7,9.2-32.9c-1.4-14.9-9.3-25.2-21.9-32.5c-14.7-8.5-30.1-15.5-45.4-22.9c-18.5-8.9-37-17.8-52.6-31.5
	c-19.8-17.5-33.4-38.3-37.4-65c-1.8-12.2-2.5-24.2-1.1-36.3c2.3-18.9,6.3-37.4,17.4-53.4c9.8-14.1,23.2-23.5,39.6-28.6
	c11.3-3.6,22.9-5.5,34.8-5.5c14.2,0,27.1,4.1,39.4,10.9c6.7,3.7,12.9,8,19.2,12.4c1.8,1.2,3.7,2,5.7,2.4c4.7,1.1,8.2-1,9.7-5.5
	c1-3.2,1.8-6.4,1.7-9.8c-0.2-3.7,2.3-3.6,4.9-3.7c2.7-0.1,4.2,0.7,4.1,3.7c-0.1,4.9,0,9.8,0,14.8c0,25.6,0,51.2,0,76.8
	c0,2.4,0.6,5.1-3.3,5.3c-5.2,0.3-6.2-0.2-7-4.7c-2.3-14.4-5.7-28.5-11-42c-6.6-17.1-16.4-31.8-32.9-41.3
	c-13.2-7.6-27.6-9.3-42.4-8.4c-11.3,0.7-22.1,3.3-32,9.1c-12.5,7.3-19.8,18.2-22.4,32.2c-2.8,15.3-1.5,29.9,7.6,43.2
	c7,10.3,16.8,17.2,27.5,23c12,6.5,24.9,11.1,37.5,16.3c22.5,9.4,44.7,19.5,62.4,37c11.8,11.7,20.7,25.2,25.8,41.1
	c5.4,16.4,7.3,33.2,4.2,50.2c-4,21.9-13.2,41.1-30.2,56c-1.4,1.2-2.3,2.1-0.5,4.1c13.8,15.9,18.5,34.7,16.2,55.3
	c-3,27.3-16,49.4-35.7,68.1c-12.8,12.2-27.7,21.1-43.7,28.4c-0.3,0.1-0.6,0.4-1.3,0.8c2.8,1.9,5.3,3.6,7.9,5.3
	c18.8,12.7,28.5,31,32.6,52.8c4,21,2.1,41.7-3.3,62.1c-4.4,16.8-11.5,32.3-20.9,46.9c-8.7,13.5-18.7,25.9-30.3,37
	c-15.5,14.8-33,26.4-53.9,32.2c-23.5,6.6-47,5.1-70.4-1c-6.9-1.8-13.7-4.2-20.1-7.3c-2.9-1.4-4.5-1-5.4,2.6
	c-5,19.9-10.3,39.8-15.6,59.6c-4.8,17.8-9.8,35.6-14.5,53.4c-2,7.6-4,15.2-6.5,22.7c-3.4,10.2-18.4,15.9-27.8,10.6
	c-4.2-2.4-6.6-8-5.3-13.9c2.4-11.1,4.9-22.1,7.7-33.1c3.4-13.8,7-27.6,10.7-41.4c3.9-15,8-29.9,12-44.9c3.8-14.1,7.7-28.2,11.5-42.4
	c4.4-16.5,8.8-33,13.3-49.5c3.9-14.5,8-28.9,11.9-43.4c3.4-12.6,6.7-25.2,10.1-37.8c4.8-17.7,9.5-35.4,14.9-52.9
	c3.7-12.1,7.2-24.3,11-36.4c7.2-23,14.5-46,25.4-67.6c11.3-22.4,25.6-42.8,44-60.1c2.2-2,4.1-2.7,6.8-1.2c2.6,1.4,5.4,2.4,8.1,3.6
	c2.1,0.9,2.2,1.9,0.5,3.5c-17.8,16.2-30.3,36-39.7,57.9c-6.3,14.8-11.4,30.1-15.7,45.6c-5,17.9-8.7,36.1-12.6,54.2
	c-3.5,16.3-7.6,32.6-10.9,49c-3.3,16.4-7.1,32.7-10.8,49c-4.5,19.6-9.7,39.1-14.1,58.8c-1.4,6.1-3.6,12.2-1.9,18.8
	c2.3,8.9,8,15.4,14.7,21.2c11.5,9.9,24.8,15,40.2,15.1c16.1,0.1,29.7-6,41.5-16.6c15.9-14.2,26.7-31.9,34.3-51.8
	c5.4-14.3,10.3-28.7,14-43.5c5.6-22.3,9.1-44.9,7-68c-0.8-9.4-2.5-19-8.7-26.7c-9-11.3-20.7-16.4-35.4-14.6
	c-13.4,1.6-26.6,4.7-40,6.6c-3.6,0.5-7.1,0.6-10.7,0.3c-7-0.6-11.5-6.6-10.1-13.5c2-9.9,10.4-20,26.1-17.5
	c9.7,1.6,19.4,3.2,29.1,4.7c7.4,1.2,14.8,2.2,22.4,1.2c8.9-1.2,16.9-4.4,24-9.6c17.8-12.9,30.5-29.8,38.7-50.1
	c7.3-18.2,10.4-36.9,6.1-56.3c-0.8-3.8-2.3-7.3-3.6-10.9c-0.9-2.6-2.4-3.4-5.1-2.5c-11.6,4-23.7,4.2-35.8,3.7
	c-11.3-0.4-21.9-3.9-32.5-7.8c-11.9-4.4-22.5-11.6-34.5-15.7c-6.6-2.2-10.4-0.5-12.6,5.9c-1.2,3.4-2,6.8-2.5,10.4
	c-0.6,4.3-1.4,4.7-5.9,4.4c-3.6-0.2-2.8-2.8-2.8-4.8c0-37.3,0-74.6,0-111.9c0-2.4-0.2-4.7,3.4-4.8c3.2,0,4.9,0.5,5.2,4.3
	c1.3,17.1,4.3,34,10.2,50.1c7.9,21.8,20.7,39.9,42.8,49.7c18.8,8.4,38.3,10.2,58.4,5.4C1235.9,501.3,1236.3,501.1,1237.2,500.7
	L1237.2,500.7z"/>
<path class="st0" d="M1315.3,509.5c-5.7-2.6-5.8-10.5-0.2-14.8c3.1-2.4,6.8-2.7,10.5-3c3.4-0.3,6.9-0.5,10.3-0.7
	c2.1-0.1,3.1-1.1,3-3.3c0-1,0-2,0-3c0-96.3,0-192.6,0-288.9c0-0.7-0.1-1.5,0-2.2c0.3-3-0.9-4.2-4-4.1c-5.3,0.2-10.6,0.1-15.9,0
	c-4.2,0-4.5-0.5-4.6-5.1c-0.2-3.5,1.1-4.7,4.7-4.7c79.7,0.1,159.3,0.1,239,0c3.5,0,4.8,1.2,4.8,4.7c0,24.5,0.1,49,0.1,73.5
	c0,2.1-0.1,4.2-3,4c-2.6-0.1-5.7,1.2-6.7-3.1c-1.5-6.5-2.5-13-4.5-19.4c-9.1-28.7-29.1-43.6-58.5-47.1c-8.1-0.9-16.2-1.3-24.3-1.3
	c-20.7,0-41.4,0-62.1-0.1c-3.2,0-4.3,1-4.2,4.2c0.1,45.4,0.1,90.9,0,136.3c0,3.4,1.2,4.1,4.3,4.1c11.5,0.1,22.9,0,34.3-0.9
	c15.4-1.3,27.1-8,32.1-24.7c2.6-8.8,3-17.7,3.6-26.6c0.2-3.5,1.5-4.6,4.9-4.7c3.7,0,4.2,1.7,4.2,4.8c-0.1,38.5-0.1,77.1,0,115.6
	c0,3-0.5,4.9-4.2,4.8c-3.4-0.1-4.7-1-5-4.6c-0.6-9.7-1-19.4-4.3-28.7c-4.1-11.5-11.4-18.7-23.7-21c-14.5-2.7-29-1.3-43.5-1.8
	c-1.8-0.1-2.8,0.7-2.7,2.6c0,1.1,0,2.2,0,3.3c0,44.6,0,89.1,0,133.7c0,3.2,1.2,6.3,0.3,9.5c-0.4,1.2,0.6,1.8,1.7,1.8
	c1,0,2,0.1,3,0.1c13.5,0,27.1,0,40.6,0c16.4,0,32.8,0.3,49.1-1.6c25.3-3,44.6-13.7,54-42.6c4.1-12.4,4.8-25.3,5.4-38.2
	c0.2-4.2,4.1-6.4,7.9-4.3c0.9,0.5,1.2,1.2,1.2,2.1c0.1,1,0.1,2,0.1,3c0,28.9,0,57.9,0,86.8c0,3.8-1.9,5.6-5.8,5.6
	c-51.7,0-103.4,0.1-155.1-0.1c-4.1,0-5.7,1.2-6.7,5.2c-5,20.8-10.3,41.5-15.5,62.3c-6.1,24.2-12.1,48.4-18.2,72.6
	c-5.3,21.1-10.6,42.2-15.8,63.3c-4.2,16.8-8.4,33.6-12.6,50.4c-4.2,16.9-8.3,33.9-12.7,50.8c-2.8,10.8-5.9,21.6-7.4,32.7
	c-1.2,8.7-2.1,17.6,0.9,26.3c3.8,10.8,15.7,13.1,23.9,4.9c7.9-7.9,12.3-17.7,16.1-27.9c4-10.7,7.2-21.7,9.7-32.9
	c0.9-4,2.2-7.8,3.2-11.7c0.6-2.3,2.1-3.6,4.2-4.1c0.4-0.1,0.7-0.2,1.1-0.3c10.6-1.9,14,1.3,11.7,11.7c-3.8,17.6-8.5,34.9-16,51.3
	c-5.5,12-13.3,22.4-25.7,28.4c-11.3,5.4-22.8,5.2-34,0.7c-19.7-8-29.4-23.5-31.5-44.3c-0.9-8.4,0.6-16.5,2.5-24.5
	c5.5-22.7,11.4-45.3,17-68c3.7-14.9,7.2-29.9,10.9-44.8c4.7-18.7,9.5-37.4,14.2-56.1c3.4-13.7,6.7-27.5,10.1-41.2
	c4.9-19.7,10.1-39.3,14.8-59c2.6-10.7,5.7-21.4,7.4-32.3c0.9-6-0.8-8.7-6.9-9.8c-7.2-1.4-14.4-1.7-21.7-1.6
	C1321.7,511.7,1318.3,511.2,1315.3,509.5c1.8-0.9,3.8-0.8,5.8-0.8c22.1,0,44.3,0,66.4,0c9.8,0,8.3,0.8,10.4-8.3
	c2.6-11.1-0.1-14.2-11.3-12.6c-12.8,1.8-25.7,2.5-38.6,3.2c-8.3,0.5-7.7-0.2-7.5,7.4c0.1,2.8-1.2,3.7-3.8,3.7c-4.4-0.1-8.9,0-13.3,0
	C1318.4,502.1,1315.6,504.6,1315.3,509.5L1315.3,509.5z"/>
<path class="st0" d="M182.6,533.4c0-114.7,0-229.5-0.1-344.2c0-7.7,2.8-9.4,9.2-9.3c108.3,0.1,216.7,0.1,325,0
	c5.9,0,8.9,2.7,8.9,9.1c-0.1,229.7-0.1,459.5-0.1,689.2c0,7.9-1.6,9.6-9.5,9.6c-108.2,0-216.4,0-324.7,0.1c-5.8,0-8.9-2.2-8.9-9
	C182.6,763.7,182.6,648.6,182.6,533.4L182.6,533.4z M505.4,534c0-108.7,0-217.4,0-326.2c0-7.6-0.9-8.6-8.4-8.6
	c-95.3,0-190.6,0-285.9,0c-7.6,0-8.5,0.9-8.5,8.5c0,217.4,0,434.9,0,652.3c0,7.2,0.6,7.8,7.8,7.8c95.5,0,191.1,0,286.6,0
	c7.7,0,8.4-0.7,8.4-8.4C505.4,750.9,505.4,642.4,505.4,534z"/>
<path class="st0" d="M629.7,687.5c5.1-8.4,10-16.8,16.1-24.4c16.8-20.9,38.8-31.5,65.5-32.6c13.4-0.5,26.6,0.8,39.3,5.1
	c19.9,6.8,33.6,19.9,39.5,40.5c0.4,1.4,1,2.8,1.4,4.2c0.4,1.4,0.6,2.9,1.1,4.8c3.6-5.6,6.2-11.2,10-16.2
	c13-16.9,28.3-30.7,49.9-35.8c18.3-4.4,36.7-3.7,54.8,0.7c17.6,4.2,30.4,14.8,39.3,30.5c5.7,10.1,7.6,21,8.1,32.2
	c1.9,39.9,0.6,79.8,0.9,119.6c0.1,11,0.1,21.9,0,32.9c0,10.3,4.6,17.1,16.1,17.9c8.3,0.6,16.7,1.3,25.1,1.2c3.4-0.1,4.7,1.2,4.5,4.5
	c-0.2,3.9-0.1,7.9-0.1,11.8c0,2.2-1,3.2-3.2,3.1c-14-0.4-28.1-0.5-42.1-1.1c-13-0.6-26.1-0.5-39.1-0.1c-14.6,0.5-29.3,0.8-43.9,1.3
	c-2.6,0.1-3.5-1.2-3.4-3.6c0.1-4.1,0.1-8.1,0-12.2c-0.1-2.7,1.1-3.7,3.8-3.7c8.5,0,17-0.4,25.4-1.3c12.3-1.4,13.8-5.6,15.8-17.1
	c0.3-1.9,0.2-3.9,0.2-5.9c0-47.2,0-94.3,0-141.5c0-10.9-1.7-21.5-5-31.9c-6.7-21.6-20.7-28.1-41.6-26.2c-33.7,3.1-55,23.1-67.3,53.6
	c-4.7,11.7-6.2,24.1-6.3,36.5c-0.2,36.1-0.1,72.1-0.1,108.2c0,4.2,0.4,8.4,1.3,12.5c1.5,7.1,5.7,10.8,12.9,11.6
	c8.8,0.9,17.7,1.5,26.5,1.4c3.3,0,4.7,0.9,4.5,4.4c-0.2,3.8-0.1,7.6,0,11.4c0.1,2.4-0.8,3.7-3.4,3.6c-14.4-0.4-28.8-0.8-43.2-1.3
	c-12.5-0.4-25.1-0.7-37.6,0.1c-0.7,0.1-1.5,0.2-2.2,0.2c-13.4,0.3-26.8,0.5-40.2,0.9c-3.5,0.1-5-0.9-4.7-4.5c0.3-3.7,0.2-7.4,0-11.1
	c-0.1-2.9,1.1-3.9,3.9-3.9c9,0.1,18-0.4,26.9-1.4c8-0.9,12-4.5,13.3-12.4c0.7-4,1.1-8.1,1.1-12.1c0.1-45.2,0.2-90.4,0-135.6
	c-0.1-12.9-1.3-25.7-5.6-38.1c-7.2-20.3-21.4-25.3-40.9-24.5c-32.1,1.4-60.9,29.2-68.9,57.8c-3,10.6-4.9,21.3-4.8,32.4
	c0.1,36.3,0,72.6,0,109c0,4.6,0.3,9,1.6,13.5c1.8,6.3,6.1,9.3,12.3,10c8.8,1,17.7,1.6,26.5,1.5c3.5-0.1,4.9,1.1,4.7,4.6
	c-0.2,3.7-0.1,7.4,0,11.1c0.1,2.6-0.8,3.9-3.6,3.8c-14.5-0.5-29-1-43.5-1.3c-12.7-0.3-25.3-0.5-38,0.2c-7.4,0.4-14.8,0.3-22.1,0.4
	c-2.2,0-3.1-1-3.1-3.2c0.1-4.3,0.1-8.6,0-12.9c0-2.4,1.1-3.2,3.4-3.4c3.9-0.4,7.8-0.5,11.6-2c3.8-1.4,6.1-4.1,7.1-7.8
	c1.3-4.8,2.2-9.6,2.2-14.6c0-52.4,0-104.9,0-157.3c0-4.7-0.7-9.3-1.7-13.9c-2.7-11.5-6.9-12.7-16.4-14.5c-6-1.2-6.1-0.8-6.1-7
	c0-3.8,0.2-7.6,0-11.4c-0.2-3.3,1.4-4.4,4.3-4.6c8-0.5,16-1,23.9-1.6c8.5-0.6,16.9-1.3,25.4-2c1-0.1,2-0.2,2.9-0.2
	c4.8-0.1,5.1,0.1,5.1,4.8c0,16,0,32,0,48C629.7,684.8,629.7,686.2,629.7,687.5L629.7,687.5z"/>
<path class="st0" d="M1603.7,178.5c7,0,14,0.1,21.1,0c2.9-0.1,4.5,1,5.4,3.8c5.7,19.1,11.5,38.1,17.3,57.1
	c4.4,14.2,8.9,28.4,13.3,42.6c4.9,16,9.6,32,14.6,48c4.8,15.5,9.7,30.9,14.4,46.4c3.7,12,7.2,24,10.8,36
	c4.2,13.6,8.5,27.2,12.7,40.8c3,9.9,6,19.7,9.1,29.6c4.6,14.9,9.2,29.8,13.9,44.7c1.6,4.9,1.7,9.4,0,14.4
	c-5,15.2-9.7,30.4-14.5,45.7c-4.8,15.2-9.7,30.5-14.4,45.7c-4.6,14.5-9,29.1-13.6,43.6c-4.7,15.1-9.5,30.2-14.3,45.3
	c-4.5,14.3-8.9,28.6-13.4,42.9c-4.9,15.7-10,31.4-14.9,47.1c-4.7,15-9.3,30.1-13.9,45.1c-3.3,10.6-6.6,21.1-9.8,31.7
	c-0.8,2.5-2.1,3.5-4.8,3.5c-13.5-0.1-27.1-0.1-40.6,0c-3.2,0-3.8-1.2-3-4c3.7-11.8,7.5-23.7,11.1-35.5c3.5-11.2,6.9-22.3,10.3-33.5
	c5-16.1,10-32.1,15-48.2c4.6-14.9,9.1-29.9,13.7-44.8c4.7-15.3,9.8-30.4,14.3-45.8c3.2-10.9,6.7-21.6,10-32.4
	c5.1-16.4,10.2-32.9,15.3-49.3c4.6-14.9,9.1-29.9,13.7-44.8c1.6-5.2,3.2-10.3,4.9-15.5c0.6-1.8,0.7-3.5,0.1-5.4
	c-4.9-15.5-9.7-31-14.5-46.5c-7.1-23-14.3-46-21.4-69c-5.6-18.2-11.2-36.4-16.8-54.6c-5.5-17.8-11.2-35.7-16.7-53.5
	c-4.9-15.9-9.6-31.8-14.5-47.6c-4.6-15-9.4-30-14.1-45c-3.5-11.3-7-22.5-10.4-33.9c-1.2-4-0.7-4.5,3.5-4.5
	C1589.7,178.5,1596.7,178.5,1603.7,178.5L1603.7,178.5z"/>
<path class="st0" d="M1056.4,413c0.1-1.7,0.1-2.4,0.1-3.1c0-64.4,0-128.8-0.2-193.2c0-6.2,0.2-12.6-2-18.6c-1.5-4.3-4.1-7.1-8.8-7.8
	c-8-1.3-16-0.5-24-0.7c-3.2-0.1-4.8-1.2-4.8-4.5c0-4.4,0.5-5.2,5-5.2c27,0,53.9,0,80.9,0c4.4,0,4.9,0.6,4.9,4.9
	c0,4.1-0.6,4.7-5.1,4.8c-8.1,0.3-16.2-0.5-24.3,0.7c-5.5,0.8-8.2,4.2-9.5,9c-1.4,5.2-1.5,10.7-1.5,16.1
	c-0.1,61.8-0.1,123.6-0.2,185.4c0,35,0,69.9,0,104.9c0,4.6-2.4,7-7.1,7c-4.8,0-9.6-0.1-14.4,0.1c-3,0.1-4.8-1-6.3-3.5
	c-7.7-13-15.5-26-23.3-38.9c-12.3-20.4-24.8-40.7-37.1-61.2c-8.9-14.7-17.6-29.6-26.5-44.3c-11.9-19.7-23.9-39.2-35.8-58.9
	c-10.1-16.7-20-33.6-30.1-50.3c-6.7-11-13.4-22-20.2-33.1c-1.4,0.9-0.9,2.1-0.9,3.1c0,82,0,164,0.1,246c0,5.8,0.3,11.6,1.8,17.2
	c1.6,6.2,5.2,9.3,11.6,10.3c7.2,1.1,14.5,0.8,21.7,0.9c5.1,0.1,7.1,3.1,5.4,8c-0.6,1.7-1.9,1.7-3.3,1.7c-5.2,0-10.3,0-15.5,0
	c-22.7,0-45.3,0-68,0c-4.5,0-4.8-0.3-4.8-4.8c0-4.4,0.4-4.8,4.8-4.9c7.1-0.1,14.3,0.3,21.4-0.8c7.4-1.1,11.4-4.9,12.8-12.3
	c1.3-7.2,1.5-14.5,1.5-21.7c0.1-88.4,0.1-176.8,0.1-265.2c0-6.5-4-10.4-10.6-10.4c-8.5,0-17-0.1-25.5,0c-3.7,0.1-4.6-1.6-4.6-4.9
	c0-3.3,0.9-4.9,4.6-4.9c30.5,0.1,61.1,0.1,91.6,0c2.5,0,4.1,0.7,5.4,2.9c6.7,11.1,13.5,22,20.2,33c7.7,12.6,15.3,25.2,23,37.8
	c9.1,15,18.3,30,27.5,45c12.9,21.2,25.8,42.4,38.7,63.6c9,14.8,18,29.6,27,44.5C1053.4,408.5,1054.7,410.3,1056.4,413L1056.4,413z"
	/>
<path class="st0" d="M577.9,345.3c0-50,0-100,0-150c0-3.8-1.9-5.7-5.7-5.7c-5,0-10.1-0.1-15.1,0c-4,0.1-3.6-2.7-3.7-5.3
	c-0.1-2.7,0.3-4.7,3.7-4.4c0.9,0.1,1.7,0,2.6,0c78.4,0,156.9,0,235.3,0c0.9,0,1.7,0.1,2.6,0c3.1-0.3,4.2,1.2,4.1,4.2
	c-0.1,6,0,12.1,0,18.1c0,18.3,0.1,36.7,0.1,55c0,2.1,0.7,4.6-2.8,5c-5,0.5-6.2,0-7-4.1c-1.9-9.2-3.8-18.3-7.7-26.9
	c-7.5-16.8-19.5-28.6-37.1-34.6c-11.1-3.8-22.6-5-34.2-5.1c-23.3-0.2-46.5-0.1-69.8-0.3c-3.8,0-4.8,1.3-4.7,4.9
	c0.1,45.1,0.1,90.1,0,135.2c0,3.6,1.1,4.6,4.6,4.6c11.2,0,22.4-0.2,33.6-0.9c10.8-0.7,20.6-4.1,27.2-13.5c4.4-6.3,6.4-13.5,7.5-21
	c0.8-5.8,1.3-11.7,1.6-17.6c0.2-3.9,2.5-3.8,5.3-3.8c3-0.1,3.8,1.3,3.8,4c0,39,0,78.1,0,117.1c0,2.8-0.9,4.1-3.8,4
	c-2.7-0.1-5,0-5.3-3.8c-0.7-9.5-1.1-19.1-4.1-28.4c-4-12.1-11.3-19.8-24.4-22.1c-14.4-2.5-28.7-1.2-43.1-1.6
	c-1.9-0.1-2.7,0.9-2.6,2.7c0,1,0,2,0,3c0,46.5,0,93.1,0,139.6c0,3.8,2,5.8,5.9,5.8c14.7,0,29.3,0,44,0c15,0,30.1,0,45-1.6
	c21.6-2.4,39.3-11.6,49.5-31.8c4.8-9.6,7.3-20.1,8.4-30.8c0.6-6.4,1.6-12.7,1.3-19.1c-0.2-3.8,2.2-3.7,4.8-3.8
	c2.7-0.1,4.4,0.5,4.4,3.8c-0.1,14.8,0,29.5,0,44.3c0,15-0.1,30,0.1,45.1c0,3.4-1,4.7-4.6,4.7c-79.8-0.1-159.6-0.1-239.3,0
	c-3.3,0-4.6-0.9-4.6-4.4c0-3.6,1.5-4.4,4.7-4.3c5.2,0.2,10.3-0.1,15.5,0.1c3.5,0.2,4.4-1.1,4.4-4.5c-0.1-31.6-0.1-63.3-0.1-94.9
	C577.9,383,577.9,364.1,577.9,345.3L577.9,345.3z"/>
<path class="st0" d="M1530.3,632.7c13.3-0.6,27.5,2.2,40.9,8.9c10.8,5.4,19.1,13.3,25.1,23.7c4.8,8.4,9.5,16.9,10.7,26.9
	c1.4,11.9-8.1,23.5-19.5,23.5c-6,0-9.3-2.9-9.4-8.9c-0.1-4.2,0.2-8.4,0.2-12.6c0.2-15.8-5.4-28.8-18.1-38.4
	c-11.1-8.4-23.9-10.7-37.4-9.3c-25.8,2.7-42.5,18.1-54.5,39.8c-3.3,6-4.9,12.5-5.2,19.4c-0.7,14.5,6,25,17.1,33.6
	c10.4,8.1,21.6,8.3,33.6,5.1c7.1-1.9,14.2-4,21.6-4.4c5.9-0.3,11.8,0.3,14.4,6.5c2.7,6.5,0.7,12.4-4,17.7c-6.1,6.9-14,7.2-22.1,5.9
	c-7.9-1.3-15.8-2.8-23.4-5c-7.3-2.1-14.1-0.6-20.4,2.5c-14.6,7.3-27,17.5-36.5,30.9c-9.2,12.8-13.4,27.3-11.7,42.9
	c2,17.8,11.4,32.1,29.1,35.6c14.7,2.9,29.1,0.5,43.2-4.3c15.4-5.3,29.4-12.9,41.8-23.6c8.2-7,14.6-15.6,21.5-23.7
	c1.4-1.6,2.8-3.1,4.3-4.5c2.5-2.3,4.9-1.9,6.8,0.9c1.9,3,1.7,6,0,9.1c-5.9,10.8-13.8,20-23.1,28c-15.7,13.4-32.9,24.1-52.9,29.9
	c-19.2,5.5-38.8,6.7-58.4,2.9c-15.2-2.9-29.3-8.6-40.9-19.1c-12.2-11-16.5-25.3-15.2-41.4c1.7-21.8,13.8-37.3,30.6-49.9
	c13.8-10.4,29.3-17.5,45.4-23.4c1-0.4,2.5-0.6,2.6-1.8c0-1.4-1.6-1.2-2.6-1.5c-11.9-4-22.9-9.4-32.2-18
	c-11.1-10.2-14.1-23-11.8-37.3c2.5-15.5,11.3-27.3,23.1-37c16.6-13.7,35.8-22.2,56.9-26.5C1509.4,633.5,1519,632.7,1530.3,632.7
	L1530.3,632.7z"/>
<path class="st0" d="M442.4,602.6c0.5,0.9,1.3,0.7,2,0.7c2.8,0,3.7,1.5,3.6,4c-0.1,1.1,0,2.2,0,3.3c0,30,0,60.1,0,90.1
	c0,1.5,0,3,0.1,4.4c0.3,4.1,3.1,6.7,6.9,6.7c3.7,0,6.7-2.8,6.9-6.7c0.3-6.3,0.4-12.5,0.7-18.8c1-25.9,1.8-51.9,1.5-77.9
	c-0.1-6.3,4.2-8.8,9.9-5.9c4.4,2.2,9.4,3.3,12.1,8.3c1.3,2.4,2.8,0.5,3.6-1.2c0.9-2,0.5-5.6,3.6-5.2c2.5,0.3,1.7,3.6,2.2,5.7
	c2.5,11.7,2.8,23.7,2.8,35.6c0.1,16.9,1.3,33.7,0.7,50.6c-0.1,4.2-0.5,8.3-0.7,12.5c-0.1,1.8-0.7,3.3-2.3,4.4
	c-1.7,1.1-1.8,2.9-0.8,4.2c2.3,2.8,0.5,4.6-1.1,6.4c-5,5.4-10,10.9-15.3,16c-4.1,3.9-5.8,8.1-5.7,13.9c0.3,34.3,0.1,68.7,0.1,103.1
	c0,5.9,0,5.7-6,5.9c-8.6,0.2-17.1-1.9-25.8-1.4c-2,0.1-3-1-3.2-2.8c-0.2-1.7-0.4-3.4-0.4-5.1c-0.1-20.1,0.2-40.1-0.3-60.2
	c-0.3-14.5-0.5-29-0.6-43.6c0-4.7-1.7-8.5-5.9-10.7c-10.5-5.6-15.7-14.8-18.5-25.8c-0.6-2.2-0.7-4.4-0.7-6.6c0-31.8,0-63.5,0-95.3
	c0-5.9,0-6-5.9-6.7c-6.5-0.8-12.5-2.7-17.8-6.6c-1.5-1.1-2.9-2.3-4-3.7c-1.7-2.2-2.6-5.7-6.6-2.8c-1,0.8-2.2-0.6-3.1-1.4
	c-6.6-5.9-11.8-13-15.4-21c-2-4.6-2.8-9.9-3.3-14.9c-0.5-5.1-0.2-10.3-0.1-15.5c0-2.5-0.6-5,2.3-6.8c1.5-1,0.7-3.3-0.4-4.7
	c-1.7-2.1-1.9-4.4-1.9-6.9c0-61.9,0.1-123.9-0.1-185.8c0-3.4,2-6,2.4-9.1c0.2-1.5,2.1-0.7,3.2-0.6c6.2,0.8,12.4,0.4,18.5-1.6
	c-3-0.4-5.9-0.7-8.9-1.1c-9.6-1.1-10.5-2.6-6.4-11.2c8.5-18,21.2-32.4,38.1-43c1.6-1,3.6-3,5.2-2.1c1.7,0.9,0.7,3.6,0.7,5.5
	c0,21.4,0,42.8,0,64.3c0,1.5,0.4,3.2-0.7,4.9c-2.4-2-3.3-4.9-4.5-7.4c-6.6-14.6-9.7-29.9-9.1-45.9c0.1-1.5,0.8-3.8-1-4.3
	c-2-0.5-3,1.7-4.2,3.1c-0.9,1.1-0.7,2.6-0.7,3.9c-0.7,22.7,6.1,43.1,18.8,61.7c1,1.4,1.3,2.9,1.3,4.5c0,28.3,0,56.6,0.1,85
	c0,2.8-0.9,3.3-3.6,2.6c-2.6-0.7-5-1.2-6.4-3.8c-0.3-0.6-1.1-1-1.7-1.3c-1.5-0.7-3.2-2.9-4.8-0.7c-1.4,1.9-0.1,4,1.5,5.1
	c2.5,1.9,5.8,3.1,3.6,7.3c-0.3,0.6,0.6,1.3,1.3,1.5c1.8,0.5,3.7,0.6,5.2-0.8c1.3-1.2,2.2-2.9,4.1-3.7c1.1,1.3,0.6,2.8,0.6,4.2
	c0,28.9,0,57.9,0,86.8c0,1.4,0,2.7,0,4.1c0.1,4.8,1.2,9.4,5.9,11.5c4.8,2.2,9.4,0.3,13.5-2.6c2.3-1.7,3.4-3.9,3.4-7
	c0-27.2,0.7-54.4,0.9-81.6c0.3-28.5,1.1-57.1,1.1-85.6c0-3.3,1.2-4.4,4.4-4c8.9,1.3,17.9,1.6,26.9,1.4c11.1-0.3,22.1,0.9,33.2,0.7
	c2.9,0,3.9,1.2,3.8,4c-0.1,7.9-0.1,15.8,0,23.6c0,2.2-0.5,3.6-3,4.3c-11.4,3.4-11.3,3.4-11.8,15.8c-0.6,17.7-1,35.4-0.8,53.2
	c0,1.1,0,2.2-0.1,3.3c-0.1,1.2-0.8,1.9-2,1.2c-3.2-1.9-6.2-0.6-9.2,0.4c-1.9,0.7-4.3,1.4-3.8,4.2c0.5,2.7,2.2,4.7,5.1,5.1
	c2.5,0.3,5-0.1,7.1-1.6c2.9-2.1,2.9-0.4,2.9,1.8c0,7.3,0.1,14.5,0,21.8c-0.1,10.1,0.5,20.2-0.9,30.2c-1.9,12.9-3.5,25.8-10.8,37.2
	c-6.8,10.7-16.2,17.7-28.1,21.4C444.7,601.4,443.3,601.3,442.4,602.6L442.4,602.6z M493,687.4c0.9-4.2,1.9-8.4,2.8-12.6
	c0.2-1.1,0.6-2.7-1.1-3.1c-1.5-0.3-2.6,0.7-3.3,1.9c-0.7,1.1-0.7,2.4-0.4,3.6C492,680.5,492.3,683.9,493,687.4L493,687.4z"/>
<path class="st0" d="M265.5,474c0.8,1.3,0.6,2.4,0.6,3.5c0,5.1-0.4,5.4-5.5,4.8c-14.5-1.7-28.7-0.9-42.8,3.1c-4.6,1.3-5.1,2-3.7,6.4
	c2.5,7.7,6,15,11,21.7c-0.8-3.3-1.7-6.6-2.4-9.9c-0.7-2.9-1.1-5.8-1.8-8.7c-0.6-2.6,0.3-4,2.8-4.6c13.1-3,26.3-3.6,39.6-1.5
	c2.2,0.4,2.2,2,2.2,3.6c-0.3,7.7-0.4,15.5-1,23.2c-0.6,8-0.3,16-0.2,24c0,2.7,0,5.4-0.1,8.1c-0.1,2.4,0.9,3.9,3,5
	c8.8,4.4,18,7.2,27.6,9.2c10.2,2.1,20.5,2.2,30.8,1.3c4.5-0.4,8.9-1.7,13.4-2.5c3.4-0.6,4.1-0.1,3.3,3.4
	c-2.2,9.8-7.7,17.8-15.2,24.3c-12.1,10.5-26.2,16.4-42.4,16.4c-1.2,0-2.9-0.3-3.3,1c-0.5,1.4,1.2,1.9,2.1,2.7
	c1.7,1.5,2.9,3.3,3.9,5.3c1.4,2.8,1.7,5.8,5.2,7.5c1.8,0.8,1.8,4,1.7,6.2c-0.6,10.8,1.2,21.5,1,32.4c-0.3,15,0.3,30.1-0.3,45.1
	c-0.5,12.8-5.8,23.8-15.5,32.4c-5.5,4.9-12.2,6-19.3,5.3c-1.3-0.1-2.7-0.6-4-0.4c-1.1,0.1-4.3-1.4-2.3,2.4c0.4,0.8-0.1,3.6-0.6,4.5
	c-2.1,4.6-0.5,9.2-1,13.8c-0.2,1.4,0.1,2.7,1.2,3.7c0.4,0.4,1,1.2,0.8,1.5c-1.3,3.2-1.8,6.4-1,9.9c0.2,0.8-1.6,3.2-3.7,3.6
	c-1.6,0.3-3.1,0.7-4.6,1.1c0.1,0.3,0,0.7,0.1,0.7c6.5,2.1,6.5,2.1,6.5,8.6c0.1,11.6-0.8,23.2,1,34.6c0.7,4.3-0.2,8.2-0.3,12.2
	c0,6.3,0.3,12.5,0.6,18.8c0.2,4.4-0.4,4.9-4.8,4.9c-9.1,0-18.2,0-27.3,0c-5.2,0-5.4-0.3-5.4-5.5c0-49.6,0-99.2,0-148.9
	c0-21.8,0-43.6,0-65.4c0-2.2-0.4-4.5,2-5.9c0.8-0.5,1-1.7,0.2-2.2c-2.8-1.8-2.3-4.5-2.1-7c0.3-3.8-1-7.7,1-11.6
	c0.5-1-1.1-3.6-1.1-5.7c0.1-2.3,0.4-4.1,3-4.8c1.5-0.4,2.3-1.5,2.1-3c-0.4-2.6,1-3,3.2-3.3c7.1-0.9,14.2-0.5,22.4-0.9
	c-5.6-3.3-10.4-6.1-14.7-9.7c-7.7-6.7-13.2-14.9-16.4-24.5c-2.6-7.6-3.5-15.5-3.5-23.6c0.2-26.5,0.1-52.9,0.1-79.4
	c0-2.6,0.4-5,1.9-7.3c1.8-2.7,2.7-5.8,0.9-9.1c-0.8-1.3-0.6-2.9-0.6-4.3c0-26.7,0-53.4,0-80.2c0-3.1,0.4-6.1,1.6-9
	c0.8-1.9,3.3-4-0.7-5.5c-0.9-0.3-0.7-2-0.7-3.1c-0.7-24.5-0.5-49,0.5-73.4c0.2-3.6,0.3-7.1,0.2-10.7c-0.2-6,0.5-11.7,7.4-14.6
	c-0.9-0.4-1.2-0.6-1.5-0.6c-1.9-0.4-4.8,1-5.4-1.8c-0.7-2.8,0.6-5.6,2.6-7.8c1.8-2,3.9-1.7,6.1-0.8c5,2.1,8.6,1.3,11.1-2.3
	c1.5-2.2,1-3.5-1.6-3.6c-2.4-0.1-4.9,0.3-7.4,0.4c-3.7,0.1-6.9-0.9-8.9-4.1c-2.2-3.6-2.1-7.5-1-11.4c0.4-1.6,2.2-1.8,3.7-1.8
	c15.1,0,30.3,0,45.4,0c2.5,0,3.5,1.2,3.5,3.6c0,15.8,1.2,31.6-0.5,47.2c-1,9.9-0.5,19.2,0.4,28.9c0.8,8.4-0.4,16.7-0.7,25.1
	c-0.4,12.7-1.2,25.3-1.3,38c-0.2,33.6-0.1,67.2,0,100.8c0,3.9-0.7,7.3-3,10.4c-1.9,2.5-3.2,5.2-4.4,8.1c-0.5,1.1-1.8,2.1-0.7,3.3
	c0.9,1,2.3,0.5,3.5,0.6C263.4,476.4,264,474.6,265.5,474L265.5,474z M250.7,687.1c0,4.3-0.8,7.7-1.6,11.2c-1.5,6.8,1.3,10.1,8.2,10
	c4.6-0.1,7.1-3.3,7.2-9.7c0.3-16.9-0.1-33.9-2.5-50.7c-0.1-0.9,0.2-1.7,0.7-2.4c1.3-2.1,2.6-4.2,4-6.2c3-4.2,6.2-8.3,9.2-12.4
	c0.6-0.8,1.3-1.8,0.4-2.7c-1.1-1-1.7,0.2-2.4,0.8c-2.1,1.6-4.1,3.2-6.1,4.8c-1.7,1.4-4.2,2-4.5,5c-0.1,1.4-1.3,1.1-2.1,0
	c-2.7-3.6-6-4.2-9.5-1.9c-2.3,1.6-3.3,4.6-6,5.8c-1,0.4,0,1.3,0.5,1.7c2.7,2.7,2.8,6.1,2.2,9.3c-0.6,3.5-0.5,6.8,0.2,10.2
	c0.9,3.9,0.2,7.8-0.7,11.7c-0.2,1-0.7,1.8-0.1,2.8C250.4,678.6,249.9,683.3,250.7,687.1L250.7,687.1z M299.4,576.8
	c-4.2,4-8.6,7.5-13.4,10.5c-2.4,1.5-4.5,1.5-6.5-0.8c-7.9-8.8-14.2-18.5-18.5-29.5c-4.2-10.5-6.7-21.3-6.9-32.7
	c0-1.8,0.7-5.2-1.8-5.1c-2.2,0.1-4.3,2.7-4.4,5.7c-0.1,1.8,0.2,3.7,0.2,5.5c0.2,5.3,1.6,10.4,2.9,15.5c5,19.6,15,36.2,29.4,50.3
	c2,1.9,3.8,2.1,5.7,0c1.7-1.9,3.6-3.8,5-5.9C294.1,586.1,297.6,582,299.4,576.8L299.4,576.8z M245.9,566c-4.9-1.5-9.1-2.6-13.2-4.2
	c-6.9-2.6-11-2.7-6.4-12.4c0.1-0.1,0.1-0.2,0.1-0.4c5.5-15.1,14.2-28.1,26.3-38.5c4.4-3.8,6-8.5,8.1-13.5c-1.7,0.1-2.6,1.1-3.6,1.8
	c-17.1,12.2-28.8,28.5-36.6,47.8c-1.6,3.9-2.7,7.9-3.6,12c-0.9,4-0.1,5.1,3.9,5.9c6.6,1.4,13.4,1.9,20.1,2.4
	C242.3,567,243.8,567.4,245.9,566z M230.2,322.1c1-0.7,1.4-0.8,1.6-1.1c8.6-10.3,16-21.4,22.7-33c0.5-0.9,1.4-2.3,0.5-3
	c-1.2-1-2.2,0.5-3,1.3c-1.2,1.1-2.3,2.2-3.3,3.5c-5.1,6.8-9.4,14-13.7,21.4C233.1,314.4,231.3,317.7,230.2,322.1L230.2,322.1z"/>
<path class="st0" d="M385.8,642.1c2.8,0.3,4-1.5,5.6-2.4c3.1-1.8,4.6-1.1,4.7,2.4c0,0.9,0,1.7,0,2.6c0,70.4,0,140.8,0,211.3
	c0,1.1,0,2.2,0,3.3c0,2.3-1.2,3.3-3.4,3.3c-9.4,0-18.7,0-28.1,0c-3,0-3.2-1.9-3.2-4.2c0-10.5,0-20.9,0-31.4c0-23,0-46,0-69.1
	c0-2.3-0.2-4.7-0.5-7c-0.3-3.6-2.2-4.5-5.4-4.4c-7.2,0.1-9.7,2.3-9.6,9.4c0.2,10.8-0.7,21.7,0.6,32.5c0.1,1.1,0,2.2,0,3.3
	c-0.1,1.6-0.6,2.6-2.5,2c-1.5-0.5-3.4-0.3-3.6,1.3c-0.2,1.4,1.3,2.9,2.8,2.9c3,0.1,2.2,1.5,1.2,3c-1,1.6-1.1,3.3-0.2,4.9
	c3,5.3,3.3,11.2,2.9,16.9c-0.8,11.8-1.6,23.6-1.3,35.4c0.1,3-1.2,4.5-4.4,4.5c-9-0.1-18-0.1-27,0c-3.1,0-4.2-1.4-4-4.3
	c1.4-19.4-0.2-38.9,1.3-58.3c0-0.5,0.1-1,0.1-1.5c-0.3-24,0.7-48,0.9-72c0.3-24.9-1.8-49.8-0.7-74.7c0.7-14.6-0.1-29.3,1.2-43.9
	c0.3-3.3,1.3-4.9,4.9-4.8c8.4,0.2,16.7,0,25.1,0.1c4.3,0,4.8,0.7,4.9,5c1,32.8,1.6,65.7,1.4,98.5c0,2.8-0.1,5.1,3.9,5.1
	c7.3,0,7.5,0,8-4.9c2.3-25.9,1.2-51.9,1.5-77.8c0.1-7,0.5-14,0.7-21c0.1-3.4,1.3-4.8,5.1-5.1c7.4-0.5,14.8-0.4,22.1-0.9
	c3.4-0.2,5.1,1.5,5.1,4.4c0.2,7.7,0.2,15.5,0,23.3c-0.1,3.9-2.5,6.9-5.9,8.8C388.6,639.5,387.1,640.3,385.8,642.1L385.8,642.1z
	 M343,726.6c0.1-2.9,0-3.3-1-3.4c-6.9-0.6-9.5-2.5-11.4-8.7c-0.6-1.9-1.7-3.3-3.1-4.5c-2-1.7-2.2-3.5-1-5.8c2-4,4.9-7.3,8-10.5
	c1.1-1.1,2.4-2.5,0-3.3c-3.2-1-3.3-1.9-0.7-3.9c1-0.8,0.7-2.6,0.1-3.8c-0.6-1-1.6-0.5-2.2,0c-5.4,4.4-10.1,9.3-11.7,16.5
	c-0.2,1.1-0.5,2.3,0.6,3c2.4,1.5,1.8,3.5,1.2,5.5c-0.5,1.8-1.4,3.7,0.1,5.3c2.6,2.7,5.4,5.2,3.4,9.5c-0.1,0.3,0.2,1,0.5,1.3
	c3,3.2,1.5,8.6,5.7,11.1c0.4,0.2,0.5,1.5,0.2,2.1c-1.1,3.2,0.2,6,1,9c0.4,1.3,0.7,2.9,2.5,2.6c2-0.3,1.3-2.1,1.5-3.5
	c0.6-3.1-3.4-7.9,2.9-9.2c0.1,0,0.2-0.2,0.2-0.3C340.4,732.3,343.4,729.8,343,726.6L343,726.6z M348.4,738.1
	c0.4,0.1,0.8,0.2,1.1,0.3c1.1-2.2,5.8-2.6,2.6-7.1c-1.2-1.7,0.7-3,2.8-3.2c1.7-0.1,3.4-0.1,5.1-0.4c1.4-0.3,2.4-1.3,2.6-2.8
	c0.1-1.4-0.7-2.4-1.9-2.9c-3.4-1.5-6.9-1.7-10.4-0.6c-1.1,0.4-1.9,1.2-1.9,2.4C348.4,728.6,348.4,733.4,348.4,738.1z"/>
<path class="st0" d="M311.8,213.7c-2.2-1.5-3.7-2.1-4.6-3.5c-0.6-0.9-0.9-1.7,0-2.6c0.7-0.7,1.7-0.8,2.3-0.2
	c6.2,6.1,13.5,2.1,20.3,2.3c4.6,0.1,9.2-1.6,13.9-1.7c3.1-0.1,4.6,1,4.5,4.2c-1.1,20.4-0.2,40.8-1.3,61.2
	c-0.5,10.2-0.4,20.4-0.7,30.6c-0.6,20.3-1.5,40.6-0.7,60.9c0.3,7.2-4.5,10.1-8.6,13.8c-1.5,1.4-3.6,2.1-5.3,3.3
	c-1.7,1.2-3,3.1-2.1,5.1c1,2.1,3.3,1.2,5,0.8c3.4-0.9,4.7-4.1,6.6-6.6c0.8-1.1,1.2-3.2,3.1-2.6c1.7,0.6,1.7,2.6,1.7,4.2
	c0,2-0.4,3.9-0.4,5.9c-0.6,15.3,0.2,30.6,0,45.8c0,3.9-1.1,7.2-4,10c-1.9,1.9-3.9,2.5-6.1,0.6c-1.1-0.9-2.4-1.7-3.6-2.6
	c-0.9-0.7-2.3-1.4-3-0.5c-3,3.4-7.6,4.8-11.1,8.6c2.9,0.6,5-0.7,7.2-1c5.6-0.6,10.9,1.7,16.5,1.7c1.6,0,2.3,1.4,2.3,2.9
	c-0.2,8.2-0.4,16.5-0.7,24.7c-0.1,2.3-1.9,2.6-3.7,2.9c-3.8,0.5-7.6,0.8-11.3,2.9c1.3,0.9,2.6,0.9,3.8,1.1c4.3,0.6,5.4,1.9,4.2,6.2
	c-2.3,8.1-5.9,15.7-10.5,22.7c-7.2,11.1-16.2,20.7-27.2,28.3c-2.1,1.4-4.5,4.1-6.6,3c-2.2-1-1-4.5-1-6.9c-0.1-27.2,0-54.4,0-81.6
	c0-1.8-1-4.4,2.3-4.9c0.2,0,0.4-0.9,0.3-1.3c-1-4.7-0.5-9.2,1.8-13.4c0.5-0.9,0.1-1.6-0.2-2.5c-4-8.9-4.5-18.4-3.8-27.8
	c0.7-9.7,1.8-19.3,1.8-29.1c-0.1-37.7-0.1-75.3-0.1-113c3.2-12.9,1.6-26.1,2.4-39.1c0.3-4.6,4.8-6.9,7.9-9.7
	C305.1,214.7,307.7,213.6,311.8,213.7L311.8,213.7z"/>
<path class="st0" d="M459.9,247.5c5.2,1.8,10.3,3.9,15.3,6.2c4.6,2.1,5.3,3.3,3.4,7.9c-4.7,10.9-10.7,21-19.1,29.6
	c-0.9,0.9-1.9,1.7-1.6,3.1c0.3,1.4,0.9,2.7,2.2,3.2c1.6,0.7,2.4-0.7,3.3-1.7c10.2-10.9,17.7-23.5,23-38.1c1.1,2.2,1.2,4.1,1.2,6
	c0,26.5,0,52.9,0,79.4c0,4.9-1.2,6.1-6.1,6.2c-13.4,0-26.8,0-40.2,0c-6.3,0-6.8-0.6-6.8-7c0-23.5,0-47-0.1-70.5
	c0-3.1-0.1-6.1-0.2-9.2c-0.1-3.2-1.1-5.4-4.4-6.9c-14.8-7-30-11.7-46.5-11.3c-6.5,0.2-13-0.5-19.5,1.2c-2.7,0.7-3.7-0.7-3.1-3.3
	c1.6-7.7,5.1-14,11.3-19.3c14-12.1,30.4-16.6,48.5-16.3c17.5,0.3,34.9-1.9,52.3-1.7c4.4,0.1,8.5,0.9,12.8,1.7
	c2.5,0.5,3.6,2.2,3.6,4.5c-0.3,12.3-0.6,24.6-1.2,36.9c-0.2,4.2-0.7,4.1-4.9,2.9C475.6,248.7,468,247,459.9,247.5L459.9,247.5z
	 M404.4,234c1.9-0.2,2.6-1.2,3.5-1.8c3.8-2.9,7.6-5.9,11.5-8.7c2.9-2,5.4-1.6,7.6,1.4c9.8,13,16.4,27.4,18.9,43.5
	c0.9,6.1,1.5,12.4,6.8,16.8c0.7-1.3,0.5-2.5,0.4-3.7c-0.1-12.3-2.7-24.1-7.3-35.5c-4.7-11.8-11.2-22.4-19.7-31.8
	c-1.5-1.6-3.4-2-4.9-0.5C415,219.7,409.3,226.1,404.4,234L404.4,234z M468.7,326c4.3,1.6,8.2,2.4,12.2,2.9c2.6,0.3,4.1-1,3.4-3.7
	c-2.1-9.5-5.5-18.6-10.3-27.1c-1.4-2.6-2.8-2.3-4.4-0.1c-1.1,1.5-0.8,2.9-0.1,4.5c1.8,4,3.6,8.1,5.3,12.1c3.2,7.3,2.5,8.8-5,10.7
	C469.8,325.4,469.6,325.6,468.7,326L468.7,326z M440,334.5c-1.1-0.1-2.2-0.2-3.1,0.8c-0.6,0.7-1,1.8-0.4,2.3
	c2.3,1.7,4.9,3.1,7.6,3.9c0.9,0.3,1.3-0.8,1.5-1.7C446.2,336.4,444.4,334.7,440,334.5L440,334.5z"/>
<path class="st0" d="M355.5,312.9c-0.6-20.3,0-39.6,1.6-59c2.4,6.4,4.6,12.9,8,18.9c-0.7-4.7-0.9-9.3-0.9-14c0-7.2,0-7.4,7.2-8.2
	c11-1.2,21.9-0.7,32.6,1.9c0.8,0.2,1.6,0.5,2.4,0.8c1.4,0.5,1.6,1.7,1.6,3c0,1.4-0.6,2.1-2,2.7c-10.2,4-18.3,10.9-26,18.4
	c-9.9,9.7-17.7,21-23,33.9C357,311.6,356.7,311.8,355.5,312.9L355.5,312.9z"/>
<path class="st0" d="M342.1,495.7c0.1,4.4,1.7,8.2,1.7,12.4c0,11.5-0.7,23.1,0.4,34.6c0.1,1.3-0.1,2.7-1.2,3.3
	c-1.6,0.8-2.2-0.9-2.7-1.8c-2-3.2-4.8-5.5-7.8-9c0.5,3.6,2.3,5.5,3.3,7.7c1.2,2.6,2.3,5.2,3.2,7.9c0.8,2.4,0,3.8-2.4,4.3
	c-14.1,3-28.3,3.3-42.5,0.6c-1.8-0.3-3.4-1-3.4-3.2c0-2.1,0.8-3.6,3.1-2.5c2.7,1.2,4.7,0.3,6.8-1.2c17.9-12.5,31.3-28.6,39-49.1
	C340.1,498.3,340.5,496.9,342.1,495.7L342.1,495.7z"/>
</svg>
