<?xml version="1.0" encoding="UTF-8"?>
<svg id="uuid-fbeb5ef1-9bdf-4d56-98cb-406180e1c606" data-name="Layer 1" xmlns="http://www.w3.org/2000/svg" viewBox="0 0 1920 1080">
  <defs>
    <style>
      .uuid-92cb777f-aa2c-46dc-b5de-45594c72fc8d {
        stroke-width: 0px;
      }
    </style>
  </defs>
  <path class="uuid-92cb777f-aa2c-46dc-b5de-45594c72fc8d" d="M1237.1991,500.6828c-6.8126-6.7987-14.9958-8.8208-23.7119-9.4721-7.6105-.5687-15.017.912-22.11,3.3059-4.5668,1.5412-8.2218.3285-11.8408-1.7878-2.1336-1.2476-5.6528-1.8728-5.6518-4.7199.001-2.8458,3.6333-2.9583,5.6801-3.8886,18.6439-8.4736,37.9405-10.6005,57.9555-5.5786,6.7447,1.6923,13.1336,4.1929,19.117,7.6032,2.9012,1.6536,4.4757.6944,6.1431-1.4684,7.4944-9.7213,10.3993-20.6709,9.2336-32.8744-1.4212-14.8778-9.3031-25.1708-21.9293-32.5076-14.691-8.5367-30.1363-15.5257-45.4165-22.8796-18.4908-8.8991-37.0129-17.7544-52.6327-31.5492-19.8116-17.4968-33.4093-38.2925-37.3843-65.0001-1.8098-12.1598-2.5078-24.2412-1.0595-36.3454,2.263-18.9109,6.2878-37.4107,17.4098-53.4416,9.8076-14.1365,23.2088-23.4667,39.6089-28.6046,11.3462-3.5546,22.8943-5.4529,34.82-5.4698,14.1817-.0201,27.0908,4.082,39.3598,10.876,6.6906,3.7049,12.9426,8.0488,19.1904,12.4133,1.7625,1.2311,3.71,1.9587,5.7419,2.4312,4.6872,1.0901,8.2062-.9595,9.7147-5.5314,1.0476-3.1747,1.8292-6.4158,1.6835-9.7774-.1626-3.7472,2.2896-3.6229,4.9061-3.68,2.6751-.0584,4.2106.6902,4.1421,3.7149-.1113,4.9225-.0215,9.8495-.0214,14.7746.0005,25.6107.0083,51.2213-.015,76.832-.0022,2.3851.577,5.0931-3.2826,5.3477-5.2075.3435-6.247-.1736-6.9877-4.7064-2.347-14.3617-5.73-28.4753-10.9782-42.0485-6.6243-17.1319-16.4243-31.8428-32.8652-41.2746-13.2294-7.5894-27.5626-9.2675-42.4211-8.3851-11.3181.6722-22.0533,3.2742-31.9637,9.1066-12.4717,7.3397-19.8222,18.1619-22.4333,32.2054-2.8402,15.2749-1.4658,29.9095,7.5558,43.1712,6.9827,10.2647,16.7675,17.1833,27.4635,22.9654,12.0315,6.5042,24.9245,11.0553,37.5092,16.3095,22.5344,9.4083,44.7202,19.4855,62.4199,37.0174,11.7859,11.6741,20.6506,25.232,25.8441,41.1125,5.3732,16.4304,7.3176,33.1598,4.1583,50.2188-4.0478,21.8563-13.2037,41.0804-30.2045,56.0092-1.4048,1.2335-2.2849,2.1194-.5359,4.1324,13.8342,15.9215,18.5336,34.6548,16.2436,55.3016-3.0281,27.3006-16.028,49.4305-35.6833,68.0811-12.8258,12.1702-27.7164,21.092-43.7044,28.3559-.3257.1479-.6119.3829-1.258.7951,2.7562,1.856,5.3483,3.5968,7.9359,5.3446,18.7964,12.6959,28.4878,30.9835,32.607,52.7798,3.9684,20.9987,2.0597,41.6899-3.278,62.1399-4.3744,16.7597-11.5382,32.3383-20.8989,46.9423-8.6737,13.5324-18.6982,25.9466-30.2913,37.0407-15.4933,14.8263-33.0486,26.3719-53.9211,32.2051-23.5308,6.5762-47.0377,5.0961-70.3833-.9611-6.8851-1.7864-13.6565-4.1566-20.1159-7.2525-2.9343-1.4064-4.4612-1.0253-5.3849,2.6346-5.0241,19.9056-10.273,39.7554-15.5695,59.591-4.7574,17.8163-9.7882,35.5601-14.4715,53.3955-2.0007,7.6199-3.9668,15.2423-6.4837,22.7051-3.439,10.1969-18.4449,15.8557-27.7771,10.5602-4.1691-2.3657-6.5765-7.996-5.3091-13.9144,2.3679-11.0579,4.9446-22.0756,7.6651-33.0528,3.4309-13.8435,7.034-27.6451,10.6702-41.4365,3.9486-14.9756,8.0102-29.9214,12.042-44.8749,3.8075-14.1217,7.6549-28.2325,11.4586-42.3552,4.4448-16.5025,8.8313-33.021,13.2995-49.5171,3.921-14.4763,7.9504-28.9232,11.8755-43.3985,3.4104-12.5777,6.6896-25.1909,10.1205-37.7629,4.8217-17.6688,9.5424-35.366,14.92-52.8795,3.7171-12.1055,7.1907-24.2864,10.9664-36.3733,7.1904-23.0184,14.5434-46.0289,25.3774-67.6335,11.2578-22.4496,25.5889-42.8106,43.9863-60.1354,2.1741-2.0473,4.0874-2.6991,6.8318-1.2265,2.5874,1.3884,5.3831,2.3891,8.0893,3.5552,2.0795.896,2.2201,1.9355.5049,3.5016-17.7555,16.2112-30.3323,35.9609-39.7228,57.9364-6.3409,14.8391-11.3819,30.0936-15.7312,45.62-5.0131,17.8969-8.6833,36.0889-12.5954,54.2353-3.5232,16.3432-7.616,32.5687-10.8822,48.9608-3.2688,16.4056-7.071,32.6844-10.8229,48.9739-4.5236,19.6401-9.6574,39.1401-14.1324,58.7906-1.3929,6.1163-3.6232,12.2337-1.916,18.849,2.3068,8.9394,8.0066,15.4289,14.6685,21.1699,11.502,9.9119,24.8443,15.0176,40.1899,15.0806,16.1433.0662,29.7332-6.0322,41.4722-16.5582,15.8913-14.2493,26.722-31.8741,34.2505-51.7823,5.4004-14.2807,10.2641-28.7156,13.9993-43.493,5.633-22.2855,9.103-44.909,7.0284-67.9567-.8459-9.3967-2.5301-18.9553-8.7077-26.6677-9.0437-11.2909-20.741-16.4339-35.3931-14.6399-13.4452,1.6462-26.6461,4.6763-40.0313,6.6312-3.5513.5186-7.1245.6358-10.6841.3269-7.0143-.6088-11.4581-6.5925-10.0827-13.5274,1.9571-9.8672,10.4317-20.0183,26.0766-17.4703,9.7133,1.582,19.4181,3.2186,29.1423,4.7309,7.4152,1.1531,14.8328,2.2237,22.3938,1.2395,8.865-1.1539,16.8747-4.4248,24.0431-9.6411,17.756-12.9207,30.5365-29.7975,38.7417-50.0762,7.3445-18.1517,10.4167-36.8565,6.1465-56.3404-.824-3.76-2.2811-7.2675-3.5683-10.8544-.9169-2.5553-2.3932-3.4136-5.0919-2.4809-11.6244,4.0173-23.6786,4.1678-35.7744,3.7149-11.3369-.4245-21.8898-3.8835-32.4513-7.8107-11.9079-4.428-22.5121-11.582-34.5361-15.6847-6.5654-2.2402-10.4037-.5286-12.6187,5.9495-1.1575,3.3854-2.032,6.8174-2.5302,10.3752-.6002,4.2852-1.4257,4.6659-5.8948,4.388-3.5784-.2225-2.8475-2.7686-2.8493-4.8355-.0309-37.3078-.0196-74.6157-.0291-111.9235-.0005-2.4292-.1861-4.7191,3.4144-4.7697,3.1587-.0444,4.9396.4657,5.219,4.2855,1.2532,17.1265,4.3232,33.9953,10.1916,50.124,7.9453,21.8361,20.7458,39.9406,42.7803,49.7481,18.8083,8.3714,38.3316,10.2246,58.4128,5.3818.3476-.0838.6655-.2905,1.5988-.7106Z"/>
  <path class="uuid-92cb777f-aa2c-46dc-b5de-45594c72fc8d" d="M1315.2608,509.4638c-5.7481-2.6497-5.8342-10.4564-.2023-14.794,3.1136-2.398,6.8007-2.6898,10.4808-3,3.4311-.2893,6.8697-.506,10.3089-.6788,2.143-.1076,3.1268-1.1329,3.0217-3.274-.0482-.9823.0069-1.9695.0069-2.9544.0009-96.2843.0007-192.5686.0006-288.8529,0-.7387-.0657-1.4839.008-2.2151.3003-2.9797-.8961-4.24-3.999-4.1419-5.2891.1673-10.5877.0761-15.8817.0275-4.2334-.0389-4.4514-.5171-4.649-5.1119-.1503-3.4962,1.0799-4.7155,4.6555-4.712,79.6622.0783,159.3247.0767,238.987.0064,3.5408-.0031,4.7646,1.2489,4.7604,4.7307-.0298,24.5018.0628,49.0039.1318,73.5057.0061,2.1112-.0869,4.1541-2.9513,4.0197-2.6083-.1224-5.7494,1.1913-6.7381-3.091-1.4915-6.4589-2.4932-13.0022-4.5122-19.38-9.0929-28.7246-29.0768-43.6303-58.4588-47.0562-8.086-.9428-16.1869-1.2955-24.3154-1.3054-20.685-.0254-41.3704-.0076-62.0547-.1491-3.2099-.0219-4.2518.9852-4.2456,4.2331.0866,45.4332.0906,90.8667-.0062,136.2999-.0071,3.3548,1.184,4.0987,4.3027,4.126,11.4556.1002,22.9266-.005,34.3187-.9413,15.4207-1.2674,27.1188-7.9695,32.0574-24.7379,2.5788-8.7559,3.0083-17.6648,3.6357-26.5874.2477-3.5228,1.467-4.6219,4.9118-4.6644,3.6881-.0454,4.248,1.7287,4.2439,4.7876-.0517,38.5383-.0507,77.0767,0,115.6149.0041,3.0258-.4736,4.8834-4.2011,4.8195-3.3751-.0579-4.7327-1.0161-4.9532-4.6036-.5949-9.6716-1.0228-19.3601-4.3231-28.6983-4.0721-11.5223-11.3572-18.6911-23.7406-21.005-14.46-2.7019-28.9746-1.3048-43.4628-1.7547-1.8318-.0569-2.7772.6946-2.7158,2.5955.0357,1.1067-.0092,2.2159-.0093,3.324-.0029,44.5715.0077,89.143-.0333,133.7145-.0029,3.178,1.2286,6.2978.2633,9.5282-.3644,1.2199.5809,1.7625,1.7203,1.8195.9829.0492,1.9686.0586,2.9531.0589,13.5438.0036,27.0876-.0161,40.6315.0073,16.3734.0282,32.8163.2635,49.0517-1.647,25.2567-2.9722,44.5822-13.7163,54.0177-42.5831,4.0599-12.4207,4.753-25.3234,5.4186-38.2222.2181-4.2241,4.0545-6.3883,7.8813-4.3443.8849.4727,1.1998,1.1895,1.2487,2.0884.0536.9827.0676,1.9685.0678,2.9529.0029,28.9346.0049,57.8691.0004,86.8036q-.0009,5.639-5.7871,5.6485c-51.7127.0025-103.4258.0509-155.1381-.093-4.1079-.0114-5.7076,1.2183-6.6664,5.2198-4.984,20.8007-10.3004,41.5217-15.4908,62.273-6.0555,24.2103-12.0989,48.4237-18.1502,72.635-5.274,21.1012-10.5532,42.2012-15.8277,63.3024-4.202,16.8099-8.4037,33.62-12.5997,50.4313-4.227,16.9354-8.2971,33.9118-12.7237,50.7947-2.8386,10.826-5.8975,21.6127-7.3857,32.7041-1.1736,8.7475-2.1391,17.6448.878,26.2976,3.7784,10.8369,15.7327,13.1371,23.9459,4.9088,7.8843-7.8988,12.3368-17.6755,16.0907-27.8718,3.9533-10.7377,7.1771-21.6992,9.6584-32.8818.8765-3.9502,2.1923-7.8011,3.2075-11.7231.5937-2.2933,2.0528-3.5586,4.2411-4.1475.3562-.0959.7139-.193,1.0764-.2589,10.5892-1.9273,13.9681,1.2668,11.7176,11.709-3.7873,17.5738-8.5052,34.9403-16.0177,51.3044-5.507,11.9955-13.2732,22.3579-25.7196,28.355-11.2908,5.4402-22.8096,5.2011-34.0109.6656-19.7379-7.9922-29.3925-23.5331-31.5337-44.3403-.8624-8.3806.6021-16.479,2.5322-24.4549,5.493-22.6993,11.3964-45.2989,17.0439-67.9612,3.7148-14.9068,7.1869-29.8741,10.9107-44.7786,4.6763-18.7173,9.5472-37.3858,14.2424-56.0985,3.4401-13.7103,6.6756-27.472,10.1045-41.1852,4.9219-19.6847,10.0976-39.3074,14.8482-59.0328,2.5863-10.7383,5.7363-21.3529,7.418-32.3086.9237-6.0183-.7787-8.6899-6.8974-9.8439-7.1627-1.351-14.4083-1.6937-21.6853-1.6162-3.4685.0369-6.8538-.4265-9.9259-2.2221,1.8508-.8755,3.8323-.7665,5.7985-.7665,22.1379-.0006,44.2758.0049,66.4137-.0029,9.7511-.0034,8.2909.7587,10.4194-8.3132,2.6112-11.1288-.1153-14.2148-11.3369-12.5973-12.7908,1.8437-25.6823,2.4997-38.5609,3.2414-8.3046.4784-7.65-.1901-7.4763,7.4382.0629,2.7614-1.183,3.7078-3.7768,3.6617-4.4261-.0787-8.8548-.0147-13.2823-.0138q-7.6265.0015-8.1865,7.3636Z"/>
  <path class="uuid-92cb777f-aa2c-46dc-b5de-45594c72fc8d" d="M182.5721,533.4472c0-114.7437.0449-229.4874-.1007-344.2309-.0097-7.6783,2.7901-9.3536,9.2067-9.348,108.3416.0945,216.6833.1045,325.0248-.0327,5.9252-.0075,8.9204,2.6683,8.9169,9.0692-.1239,229.7336-.1037,459.4673-.1046,689.201,0,7.9085-1.6436,9.5749-9.4607,9.5751-108.2185.0015-216.4371-.0293-324.6555.0848-5.7934.0061-8.9438-2.1533-8.9348-8.9796.1509-115.1128.1079-230.2259.1079-345.3389ZM505.4466,533.9624c0-108.7222.0004-217.4444-.0008-326.1666,0-7.6234-.936-8.5785-8.4243-8.5786-95.3012-.0018-190.6024-.0018-285.9036-.0003-7.643.0001-8.5034.8536-8.5035,8.4582-.0019,217.4441-.0021,434.8882-.0007,652.3322,0,7.1702.6421,7.8182,7.7856,7.8185,95.5475.0027,191.0949.0029,286.6424.0002,7.7354-.0002,8.4044-.6807,8.4044-8.4358.0006-108.476.0005-216.9519.0005-325.4278Z"/>
  <path class="uuid-92cb777f-aa2c-46dc-b5de-45594c72fc8d" d="M629.7376,687.5095c5.115-8.4486,10.012-16.7891,16.1218-24.3825,16.8412-20.9304,38.7984-31.5222,65.4994-32.5628,13.3843-.5216,26.5794.7841,39.2951,5.1472,19.9195,6.835,33.5534,19.9381,39.4631,40.503.4059,1.4123,1.0297,2.7623,1.4303,4.1759.4001,1.4118.647,2.867,1.0741,4.8202,3.5517-5.5912,6.221-11.2379,10.0195-16.1679,13.0407-16.925,28.3472-30.6642,49.8583-35.7973,18.3453-4.3776,36.6642-3.6729,54.8385.7187,17.578,4.2476,30.3782,14.8358,39.2786,30.5264,5.7064,10.0599,7.5611,20.9742,8.1012,32.2149,1.915,39.8634.5756,79.7573.9375,119.6362.0994,10.9566.0559,21.9149.0051,32.8722-.0477,10.2813,4.6257,17.0746,16.1494,17.887,8.3471.5886,16.6846,1.338,25.053,1.2043,3.3881-.0539,4.6545,1.19,4.4878,4.5391-.1955,3.9304-.0786,7.8773-.0583,11.8168.0111,2.1532-.9972,3.1721-3.1536,3.1168-14.0217-.3596-28.0545-.4793-42.0627-1.1285-13.041-.6043-26.0599-.5493-39.0949-.1294-14.6314.4714-29.2666.8226-43.8987,1.2768-2.6119.0811-3.4809-1.1842-3.4453-3.5936.0602-4.062.0836-8.127-.0069-12.1878-.06-2.6937,1.114-3.6876,3.7738-3.6845,8.4914.0098,16.9742-.3551,25.4193-1.2845,12.3321-1.3574,13.7636-5.6137,15.8222-17.1128.343-1.9158.1692-3.931.1691-5.9003-.0014-47.154.0182-94.308-.0431-141.4619-.0142-10.8753-1.743-21.5263-4.9755-31.9211-6.7133-21.5882-20.7124-28.1416-41.6366-26.2075-33.7337,3.1181-54.9669,23.063-67.268,53.628-4.7131,11.7108-6.2112,24.0677-6.2847,36.5178-.2129,36.0722-.0872,72.1465-.0694,108.22.0021,4.1898.4248,8.3616,1.2884,12.4602,1.5059,7.1477,5.6838,10.8397,12.9044,11.6042,8.8157.9334,17.6564,1.5422,26.5197,1.4334,3.2798-.0402,4.7439.9409,4.5229,4.4243-.2412,3.8015-.1286,7.6316-.0356,11.4459.0593,2.4276-.7656,3.6913-3.382,3.6112-14.3864-.4406-28.7767-.7639-43.1613-1.2528-12.5429-.4261-25.0792-.7349-37.6139.1493-.7362.0519-1.469.1828-2.2051.1995-13.4093.304-26.8215.5169-40.2268.9446-3.4603.1104-4.975-.8882-4.7181-4.5489.258-3.6755.186-7.3888.0197-11.0748-.1318-2.9228,1.0943-3.8945,3.9082-3.8758,8.9867.0596,17.9536-.4315,26.8888-1.4272,7.9921-.8905,11.9975-4.4593,13.3213-12.3748.6671-3.9891,1.0818-8.0713,1.0883-12.1122.0725-45.1841.1804-90.3689-.046-135.552-.0647-12.9026-1.2521-25.7073-5.6447-38.1323-7.1617-20.2578-21.3535-25.3344-40.8635-24.4831-32.1422,1.4025-60.8573,29.1885-68.8818,57.782-2.973,10.5935-4.8566,21.3017-4.8329,32.3582.0779,36.3196.0337,72.6394.017,108.9591-.0021,4.5688.3398,9.0332,1.6228,13.4919,1.8209,6.328,6.1075,9.2766,12.2705,10.0031,8.8051,1.0377,17.6525,1.6175,26.5152,1.4543,3.4939-.0643,4.9436,1.0533,4.728,4.6362-.2215,3.6804-.1187,7.3857-.0334,11.0771.0592,2.5632-.7914,3.8967-3.6091,3.8006-14.5069-.495-29.0155-.9545-43.5261-1.3268-12.6724-.3251-25.3408-.5237-38.0182.2067-7.3662.4244-14.7653.2778-22.1495.394-2.1589.034-3.1043-1.0036-3.0752-3.1681.0579-4.3082.071-8.6187-.0048-12.9265-.042-2.3856,1.1457-3.1507,3.3513-3.4018,3.8914-.4432,7.8221-.5494,11.601-1.9562,3.8344-1.4274,6.0863-4.0801,7.1203-7.8485,1.3051-4.7562,2.244-9.5883,2.244-14.5552-.0002-52.4481.0095-104.8962-.0173-157.3443-.0024-4.6893-.6877-9.3209-1.7428-13.8939-2.6622-11.5383-6.8757-12.6887-16.4358-14.5358-6.0428-1.1675-6.1119-.8163-6.1144-7.0367-.0015-3.8167.169-7.6428-.0485-11.447-.1871-3.2706,1.3911-4.3866,4.3175-4.5695,7.9796-.4989,15.9578-1.023,23.9317-1.6045,8.463-.6172,16.9204-1.3128,25.3804-1.9714.9812-.0763,1.9629-.1681,2.946-.1971,4.7931-.1418,5.0689.0984,5.0734,4.8347.015,16.0053.0064,32.0106.0069,48.0159,0,1.344,0,2.6879,0,4.0318Z"/>
  <path class="uuid-92cb777f-aa2c-46dc-b5de-45594c72fc8d" d="M1603.7373,178.5249c7.0177,0,14.0369.0862,21.0523-.0416,2.8956-.0528,4.5258.9539,5.3838,3.8172,5.714,19.0666,11.4888,38.1154,17.3349,57.1419,4.3667,14.2113,8.9296,28.3623,13.2967,42.5734,4.9105,15.9801,9.6469,32.0136,14.5549,47.9944,4.7575,15.491,9.6882,30.929,14.4467,46.4199,3.6806,11.9829,7.1582,24.028,10.8238,36.0156,4.1665,13.6261,8.4565,27.2144,12.6646,40.8279,3.048,9.8608,6.0275,19.7427,9.0771,29.603,4.6075,14.8967,9.1518,29.8142,13.9332,44.6552,1.5739,4.8853,1.6899,9.4175.0478,14.3678-5.0295,15.1628-9.6848,30.4498-14.4965,45.685-4.8117,15.2353-9.6637,30.458-14.4478,45.7019-4.559,14.5267-9.0294,29.0812-13.582,43.61-4.7366,15.1152-9.5398,30.2094-14.2863,45.3215-4.4915,14.2997-8.924,28.6179-13.4251,42.9146-4.9444,15.7058-9.9846,31.3815-14.8961,47.0976-4.6899,15.006-9.2559,30.0506-13.8991,45.0712-3.2636,10.5578-6.5939,21.0951-9.8293,31.6614-.7527,2.458-2.0849,3.5475-4.7893,3.5262-13.542-.1071-27.0857-.116-40.6277-.0004-3.2367.0276-3.8483-1.1939-2.9573-4.011,3.7441-11.8366,7.452-23.6848,11.1355-35.5404,3.4656-11.1542,6.8705-22.3271,10.3258-33.4846,4.9798-16.0813,10.0093-32.1473,14.9647-48.2361,4.5981-14.9282,9.075-29.8939,13.701-44.8133,4.733-15.2642,9.8244-30.4215,14.2995-45.7596,3.1699-10.8648,6.6658-21.6196,10.0032-32.4274,5.0748-16.4338,10.1989-32.8524,15.2549-49.292,4.5905-14.9253,9.1051-29.874,13.6812-44.8038,1.5856-5.1729,3.1813-10.3452,4.9249-15.4658.6289-1.8465.7042-3.5074.1183-5.3734-4.8636-15.4878-9.6669-30.9944-14.4728-46.5002-7.1326-23.012-14.2681-46.0231-21.3722-69.0439-5.6192-18.2083-11.1555-36.4422-16.7972-54.6436-5.532-17.8472-11.2028-35.6516-16.7164-53.5044-4.8968-15.8555-9.6094-31.7678-14.5006-47.625-4.6356-15.0287-9.4233-30.0103-14.0953-45.0279-3.5062-11.2701-6.9908-22.5477-10.3686-33.8568-1.1917-3.9903-.7123-4.5134,3.482-4.5417,7.0174-.0473,14.0353-.0129,21.0528-.013Z"/>
  <path class="uuid-92cb777f-aa2c-46dc-b5de-45594c72fc8d" d="M1056.4041,412.9692c.0778-1.678.1409-2.4005.1406-3.1231-.0259-64.3927.0023-128.7855-.1818-193.1778-.0177-6.2039.1606-12.5535-1.9919-18.6243-1.5282-4.3103-4.0806-7.0943-8.8124-7.8439-7.9701-1.2626-15.9745-.4949-23.96-.6689-3.1857-.0694-4.7827-1.168-4.775-4.5457.0101-4.4383.5453-5.1608,5.0096-5.163,26.9637-.0133,53.9275-.0143,80.8912.0012,4.3786.0025,4.9257.5925,4.9168,4.8669-.0086,4.1077-.6376,4.6633-5.0923,4.8085-8.1084.2643-16.2289-.4884-24.3353.6551-5.4734.7721-8.2462,4.2078-9.5224,8.99-1.4005,5.248-1.4627,10.7384-1.4724,16.1317-.1123,61.8069-.1259,123.614-.1516,185.4211-.0145,34.9667-.0022,69.9333-.003,104.9q0,6.9579-7.1364,6.9592c-4.8017.0005-9.6098-.148-14.403.0531-2.9563.124-4.8027-.9611-6.2909-3.4722-7.708-13.0064-15.4879-25.9705-23.3102-38.9086-12.3353-20.4025-24.7659-40.7476-37.0765-61.165-8.8866-14.7386-17.5739-29.5974-26.4758-44.3267-11.8865-19.6678-23.9489-39.2293-35.8341-58.898-10.1074-16.7265-20.0294-33.5648-30.112-50.3064-6.6523-11.0459-13.4437-22.0081-20.2168-33.0796-1.4288.91-.892,2.1245-.892,3.0913.0055,81.9992.0262,163.9984.1171,245.9975.0064,5.7713.3137,11.5705,1.7526,17.2174,1.5672,6.1505,5.1804,9.2531,11.5622,10.2638,7.2205,1.1435,14.4901.7824,21.7459.8941,5.1168.0788,7.1296,3.123,5.389,8.017-.5994,1.6853-1.9061,1.7161-3.2763,1.7209-5.1711.0183-10.3422.0165-15.5134.0167-22.6545.001-45.3089.0055-67.9634-.0047-4.4768-.002-4.7689-.3256-4.7584-4.8213.0103-4.4055.4477-4.8397,4.8343-4.9315,7.1307-.1491,14.2726.2648,21.3812-.8085,7.352-1.11,11.4489-4.9016,12.753-12.2591,1.272-7.1764,1.4708-14.4694,1.4809-21.6992.1236-88.4015.0942-176.8032.0943-265.2048,0-6.4995-3.9869-10.4263-10.5503-10.4413-8.4955-.0194-16.9933-.1271-25.4851.0463-3.7076.0757-4.5913-1.6066-4.5777-4.9336.0135-3.3163.8784-4.8744,4.5984-4.8605,30.5338.1137,61.0683.085,91.6024.0232,2.4765-.005,4.1162.7217,5.4287,2.9008,6.6582,11.0543,13.451,22.0274,20.1645,33.0485,7.6713,12.5936,15.2948,25.2163,22.9648,37.8106,9.1436,15.0142,18.3246,30.0057,27.4712,45.0181,12.9158,21.1987,25.8218,42.4033,38.7189,63.6133,9.0067,14.8122,17.9843,29.6421,26.9948,44.452,1.1442,1.8806,2.4094,3.6875,4.158,6.3496Z"/>
  <path class="uuid-92cb777f-aa2c-46dc-b5de-45594c72fc8d" d="M577.9308,345.2828c0-49.9874.001-99.9747-.0014-149.9621q-.0003-5.714-5.6849-5.7248c-5.0479-.0083-10.0969-.0795-15.1434.0022-4.0478.0655-3.5888-2.737-3.6748-5.341-.0877-2.6548.3387-4.7412,3.7298-4.4466.8552.0743,1.7227.0045,2.5845.0045,78.4284-.0003,156.8569-.0003,235.2854-.0001.8619,0,1.7294.0686,2.5846-.0061,3.0661-.2679,4.1786,1.2332,4.146,4.1577-.0674,6.032.009,12.0656.0216,18.0985.0381,18.3451.091,36.6902.0868,55.0352-.0005,2.0747.7206,4.6088-2.7701,4.9708-4.9825.5167-6.1511.0224-6.9884-4.0873-1.8686-9.1718-3.829-18.2953-7.652-26.9211-7.464-16.8409-19.5468-28.6386-37.147-34.5942-11.0942-3.7541-22.5815-4.9946-34.1691-5.1189-23.2677-.2496-46.5394-.1117-69.8076-.3335-3.829-.0365-4.754,1.2716-4.7454,4.9063.1057,45.0622.1048,90.1249.0008,135.1872-.0082,3.5637,1.0784,4.588,4.6149,4.6021,11.2085.0446,22.416-.1644,33.5822-.9195,10.7692-.7282,20.6051-4.129,27.1546-13.4838,4.3866-6.2656,6.4195-13.5493,7.5012-21.0143.8452-5.8332,1.2959-11.7418,1.5691-17.6333.1791-3.8639,2.52-3.7608,5.275-3.8407,2.9639-.086,3.8396,1.2797,3.8368,4.02-.0394,39.0295-.0407,78.0591.0017,117.0885.003,2.7595-.8939,4.0967-3.843,4.005-2.7375-.0851-4.9856.0412-5.2894-3.8239-.7496-9.5378-1.0661-19.1251-4.1469-28.3851-4.0237-12.0939-11.3237-19.8454-24.4394-22.1476-14.354-2.5196-28.7354-1.2047-43.1015-1.6459-1.9073-.0586-2.6749.8879-2.6339,2.6988.0224.9843-.0129,1.9697-.0129,2.9547-.0009,46.5394-.0013,93.0787.0002,139.6181q.0002,5.762,5.9123,5.7659c14.6515.0014,29.3029-.0023,43.9544-.0004,15.0186.0019,30.0815.0068,44.9911-1.6245,21.5758-2.3606,39.3252-11.604,49.5032-31.8497,4.8422-9.632,7.3407-20.0668,8.3585-30.821.6027-6.3676,1.6186-12.7157,1.3268-19.1331-.1706-3.7518,2.1863-3.7053,4.8216-3.7548,2.7262-.0512,4.4368.506,4.4145,3.8229-.0992,14.7739-.038,29.5488-.0371,44.3234.001,15.0208-.0763,30.0424.0556,45.062.0303,3.4493-.9992,4.7426-4.6159,4.739-79.7827-.0806-159.5655-.0768-239.3483-.0076-3.2849.0029-4.6183-.9175-4.6343-4.3683-.0164-3.5523,1.5114-4.4062,4.7123-4.2909,5.1644.186,10.35-.1432,15.5081.1154,3.4769.1743,4.4174-1.1365,4.4076-4.4584-.0932-31.642-.0549-63.2843-.0546-94.9266.0002-18.8376,0-37.6752,0-56.5128Z"/>
  <path class="uuid-92cb777f-aa2c-46dc-b5de-45594c72fc8d" d="M1530.278,632.6521c13.3491-.579,27.5176,2.2014,40.942,8.9054,10.7973,5.392,19.1321,13.2887,25.0674,23.6935,4.8142,8.4391,9.5221,16.9135,10.7138,26.8804,1.4217,11.8898-8.0541,23.527-19.5236,23.5438-6.0421.0089-9.2584-2.9007-9.4357-8.9098-.1232-4.1778.156-8.3664.2148-12.5507.2217-15.7657-5.4413-28.7799-18.1492-38.4202-11.1121-8.4296-23.8903-10.7251-37.3757-9.3039-25.7661,2.7157-42.4811,18.1157-54.4709,39.795-3.3153,5.9946-4.9029,12.5127-5.2289,19.3587-.689,14.4691,6.0083,25.0011,17.0911,33.6206,10.4005,8.0886,21.6408,8.2906,33.6019,5.0787,7.1231-1.9127,14.2384-4.0029,21.649-4.4313,5.8668-.3392,11.8343.2729,14.4129,6.5051,2.6897,6.5013.6807,12.4493-3.9617,17.6859-6.1215,6.9049-14.0042,7.1985-22.1072,5.8726-7.8716-1.288-15.7533-2.8286-23.4094-5.0281-7.3493-2.1113-14.1295-.5898-20.3907,2.5314-14.6133,7.2848-26.9863,17.5479-36.5332,30.8713-9.1552,12.7767-13.4304,27.3278-11.7193,42.8666,1.9602,17.8017,11.4131,32.1416,29.1295,35.6207,14.7385,2.8944,29.1151.5345,43.1846-4.2729,15.4104-5.2655,29.4455-12.9189,41.8192-23.5843,8.1534-7.0278,14.5629-15.6075,21.5372-23.6902,1.3643-1.5811,2.7814-3.1359,4.32-4.5432,2.4824-2.2703,4.9336-1.9325,6.7751.9131,1.9279,2.9792,1.7164,5.9786.0289,9.0682-5.9106,10.8217-13.8203,19.992-23.1362,27.9634-15.6699,13.4081-32.9007,24.1202-52.9016,29.8577-19.236,5.5181-38.7692,6.7071-58.4137,2.89-15.1588-2.9455-29.3223-8.6206-40.9258-19.132-12.1796-11.0334-16.481-25.3328-15.2098-41.3955,1.7228-21.7687,13.8367-37.321,30.5945-49.9044,13.7962-10.3596,29.3058-17.4663,45.3835-23.4387,1.0355-.3846,2.5407-.5685,2.5544-1.7547.0157-1.3576-1.6348-1.1885-2.6059-1.5182-11.8579-4.0265-22.9278-9.3992-32.2394-18.026-11.0553-10.242-14.142-22.9956-11.8053-37.3409,2.5244-15.4971,11.3314-27.34,23.0997-37.0386,16.6359-13.7102,35.7581-22.2077,56.906-26.4757,9.6024-1.9379,19.2184-2.7435,30.5181-2.7627Z"/>
  <path class="uuid-92cb777f-aa2c-46dc-b5de-45594c72fc8d" d="M442.4162,602.61c.4785.9209,1.313.6987,1.9823.6897,2.7683-.0372,3.6749,1.482,3.5521,3.9973-.0539,1.1053-.0002,2.2157-.0002,3.3238.0007,30.0412,0,60.0825.0035,90.1238.0002,1.4771-.0478,2.9612.0731,4.4299.3352,4.0705,3.0938,6.6863,6.9449,6.6828,3.7435-.0035,6.7362-2.7727,6.9074-6.7382.2705-6.2646.4442-12.5354.6739-18.8002.9507-25.9453,1.8192-51.8985,1.4805-77.872-.0825-6.3282,4.1555-8.779,9.9474-5.8719,4.3845,2.2007,9.3641,3.2772,12.0501,8.2921,1.2931,2.4143,2.8267.5378,3.617-1.2005.906-1.993.5259-5.5747,3.5714-5.1707,2.5418.3372,1.7343,3.6433,2.1706,5.707,2.4833,11.7457,2.7954,23.6536,2.836,35.6077.0572,16.8576,1.2798,33.7022.6866,50.5693-.1469,4.1774-.4716,8.3488-.7299,12.522-.1115,1.8008-.698,3.3255-2.3326,4.3631-1.7008,1.0796-1.8248,2.8688-.7517,4.176,2.2624,2.7558.5308,4.5778-1.1484,6.3802-5.0327,5.4022-9.96,10.9249-15.2979,16.0131-4.0919,3.9004-5.7764,8.0596-5.7268,13.8793.2929,34.348.1459,68.6998.1422,103.0502-.0007,5.8509-.0148,5.7091-6.0064,5.856-8.6394.2118-17.1373-1.8511-25.7785-1.431-1.9524.095-2.9944-.9724-3.2282-2.8071-.2171-1.7028-.3921-3.4245-.3987-5.1387-.0774-20.0684.1963-40.1444-.2769-60.2028-.3425-14.5204-.4594-29.037-.5728-43.5565-.0367-4.6983-1.7418-8.5136-5.9222-10.7414-10.4725-5.581-15.6793-14.8215-18.527-25.831-.5639-2.1801-.6663-4.365-.6658-6.5856.0069-31.7649.0057-63.5299.0045-95.2948-.0002-5.8548.0117-5.9901-5.887-6.6975-6.4847-.7777-12.4951-2.6843-17.7521-6.6214-1.4639-1.0963-2.9175-2.3106-4.0389-3.7358-1.7346-2.2047-2.6024-5.7041-6.5985-2.7595-1.0327.7609-2.2286-.5853-3.1464-1.4125-6.5819-5.9333-11.8368-12.9877-15.3933-20.9866-2.0331-4.5728-2.751-9.8744-3.2843-14.9298-.5396-5.1142-.166-10.3301-.1025-15.5003.0303-2.4702-.5846-4.991,2.2853-6.8413,1.5273-.9846.6837-3.2882-.4157-4.6785-1.652-2.0891-1.9131-4.3987-1.9119-6.9286.0297-61.9294.0648-123.8588-.0873-185.7878-.0084-3.4239,1.9526-5.9708,2.393-9.1208.2116-1.5135,2.0547-.7408,3.2135-.6008,6.2237.7517,12.369.3626,18.4922-1.5786-2.9719-.3583-5.9408-.7428-8.9161-1.07-9.6409-1.0603-10.4836-2.6242-6.4091-11.2458,8.5296-18.0486,21.1811-32.4172,38.131-42.9656,1.6213-1.009,3.5655-3.0199,5.171-2.1229,1.6916.945.7063,3.6264.7107,5.5278.0496,21.4227.0358,42.8456.0015,64.2684-.0025,1.5441.3868,3.1748-.6586,4.8949-2.4286-2.0245-3.3443-4.8525-4.5179-7.4313-6.6322-14.5743-9.7-29.8666-9.0557-45.8968.0598-1.4884.8198-3.781-1.0109-4.2812-1.9728-.539-3.0412,1.7074-4.1672,3.0901-.8975,1.102-.6699,2.5752-.7115,3.9245-.701,22.6971,6.1259,43.1044,18.8186,61.7113.9585,1.4051,1.3018,2.8923,1.3023,4.5206.0077,28.3175-.0096,56.6352.0527,84.9526.0062,2.813-.9103,3.3305-3.5519,2.6233-2.5701-.688-4.9777-1.2425-6.3644-3.8327-.3109-.5808-1.0933-.991-1.7455-1.2907-1.5267-.7014-3.1695-2.9075-4.7553-.6761-1.3577,1.9102-.0571,3.9685,1.5302,5.1488,2.5475,1.8943,5.8435,3.1112,3.5689,7.3413-.3391.6307.6141,1.2931,1.341,1.4974,1.8414.5172,3.6855.6207,5.2236-.7785,1.3405-1.2194,2.2416-2.927,4.1249-3.6825,1.0739,1.2973.5692,2.8248.5709,4.2089.0349,28.9332.026,57.8663.026,86.7995,0,1.3543-.0296,2.7097.0117,4.0628.1456,4.7665,1.2019,9.3657,5.8947,11.4818,4.8349,2.1802,9.4159.2641,13.4731-2.64,2.3091-1.6529,3.3902-3.9456,3.3858-6.9704-.0398-27.2003.6779-54.3935.9171-81.5928.251-28.5445,1.1403-57.0861,1.1048-85.6369-.0041-3.307,1.1701-4.4263,4.3881-3.9579,8.9104,1.2971,17.8885,1.615,26.8757,1.379,11.0853-.2911,22.1314.8788,33.2063.7401,2.9153-.0365,3.8579,1.2365,3.8199,4.0226-.1075,7.8782-.0612,15.7589-.0241,23.6384.0104,2.1941-.5404,3.6044-2.984,4.3224-11.4082,3.3519-11.3461,3.4247-11.7589,15.8328-.5893,17.7138-1.0481,35.4283-.7848,53.1543.0165,1.1064.0115,2.2196-.0919,3.3195-.1155,1.2295-.8242,1.9035-1.9991,1.1986-3.1998-1.92-6.2385-.6002-9.2301.4294-1.9243.6623-4.3154,1.3632-3.7835,4.1777.5188,2.7448,2.1612,4.7116,5.123,5.0632,2.5129.2982,5.0373-.1018,7.078-1.5645,2.8881-2.07,2.9121-.3514,2.9125,1.848.0013,7.264.0896,14.5284.04,21.7919-.0688,10.084.5494,20.2158-.9339,30.2275-1.9067,12.8706-3.5259,25.8369-10.7581,37.2429-6.7611,10.663-16.159,17.6574-28.1107,21.4098-1.2209.3834-2.6889.2774-3.5266,1.544ZM492.9839,687.3993c.943-4.1841,1.9444-8.3565,2.79-12.5602.2257-1.122.5535-2.7209-1.0749-3.1071-1.4548-.3451-2.5587.6584-3.3177,1.8706-.6955,1.1108-.7464,2.3745-.3844,3.5738,1.0027,3.3223,1.332,6.7279,1.987,10.2228Z"/>
  <path class="uuid-92cb777f-aa2c-46dc-b5de-45594c72fc8d" d="M265.5401,474.0341c.8359,1.2777.624,2.4148.6314,3.5036.0342,5.0519-.3947,5.3979-5.5249,4.7978-14.4549-1.6907-28.7286-.8557-42.7787,3.0923-4.6376,1.3031-5.1447,2.0194-3.6866,6.4244,2.5497,7.703,5.9668,15.0074,10.9502,21.6862-.8081-3.3097-1.6576-6.61-2.4117-9.932-.653-2.8769-1.118-5.7978-1.8141-8.6633-.6246-2.5715.2896-4.023,2.8144-4.5981,13.095-2.9829,26.2729-3.6131,39.5604-1.4667,2.2333.3607,2.2427,2.0016,2.1835,3.6209-.2831,7.7437-.4385,15.4983-.9852,23.2246-.5662,8.0019-.3085,15.9888-.2273,23.9852.0274,2.6977-.0031,5.4006-.1447,8.0939-.1264,2.4065.8992,3.9001,3.0271,4.9567,8.7639,4.3516,17.9664,7.2044,27.5663,9.1566,10.2415,2.0827,20.4915,2.2016,30.7808,1.3317,4.5006-.3805,8.9224-1.6641,13.3885-2.4917,3.4136-.6326,4.1046-.0565,3.3237,3.384-2.2344,9.8449-7.7391,17.8281-15.226,24.2891-12.1209,10.4602-26.1666,16.3748-42.4043,16.4487-1.1903.0055-2.8509-.3021-3.3117.999-.4952,1.3984,1.1941,1.9349,2.0756,2.7018,1.7094,1.4871,2.9497,3.3476,3.9291,5.3163,1.3685,2.7509,1.7375,5.8491,5.2426,7.4541,1.7574.8048,1.8146,3.9706,1.6947,6.1562-.5935,10.8169,1.2328,21.5388,1.0319,32.3508-.2791,15.0162.333,30.0589-.2782,45.0559-.5204,12.7688-5.7751,23.8209-15.499,32.3956-5.5193,4.867-12.2177,6.039-19.3486,5.3479-1.3439-.1303-2.7087-.5958-4.0099-.4439-1.08.126-4.2804-1.3924-2.3472,2.4033.4179.8205-.1273,3.5694-.56,4.5107-2.1134,4.5972-.5271,9.2401-1.039,13.7925-.1521,1.3522.063,2.6857,1.2037,3.7208.4198.3809.9754,1.1657.8374,1.5213-1.2527,3.229-1.8362,6.3722-.9933,9.9188.2011.8463-1.6064,3.2046-3.7424,3.5733-1.5656.2702-3.1018.7101-4.6453,1.0729.0503.3133.0343.6619.1211.6896,6.5024,2.0827,6.4692,2.081,6.5464,8.6282.1364,11.5662-.8223,23.2369.9639,34.6461.6805,4.3468-.234,8.1759-.252,12.2393-.0278,6.2785.2604,12.5409.5893,18.8099.2313,4.4077-.3895,4.8657-4.8077,4.88-9.1111.0297-18.2224.0227-27.3335.0059-5.1502-.0096-5.4171-.2697-5.4179-5.4514-.0082-49.619-.0054-99.2381-.0056-148.8572,0-21.7928-.0048-43.5857.0082-65.3786.0013-2.1757-.3998-4.4774,1.9829-5.9363.829-.5076,1.0011-1.6853.1659-2.2164-2.7712-1.7625-2.3104-4.5026-2.1016-6.9789.3219-3.8165-1.0236-7.6899.9821-11.557.5431-1.0472-1.1348-3.5947-1.0839-5.6849.056-2.3029.4445-4.1321,3.0414-4.7591,1.5285-.3689,2.2939-1.4998,2.0721-3.0401-.3708-2.5739.9958-2.9853,3.1786-3.2605,7.0987-.8948,14.2406-.517,22.4181-.8727-5.608-3.3126-10.4453-6.061-14.664-9.7342-7.707-6.7104-13.161-14.9239-16.4441-24.526-2.604-7.616-3.5238-15.4933-3.4671-23.5894.1853-26.47.1116-52.9419.0946-79.4131-.0017-2.645.3828-4.9965,1.9363-7.309,1.829-2.7226,2.6928-5.8262.8509-9.054-.77-1.3493-.5815-2.8732-.5819-4.3417-.007-26.7179.006-53.4359-.0161-80.1538-.0026-3.1176.4199-6.1257,1.5668-9.0336.7565-1.918,3.3272-4.0211-.748-5.4575-.9014-.3177-.6706-2.0159-.6997-3.1114-.6504-24.4791-.5253-48.9525.54-73.4198.1553-3.5656.2747-7.1415.1855-10.707-.1513-6.0466.4553-11.6618,7.4022-14.6084-.9018-.3801-1.1827-.5547-1.4868-.6176-1.9071-.3941-4.7596.9725-5.4249-1.7652-.6878-2.8305.6016-5.5564,2.5601-7.78,1.7713-2.011,3.8505-1.7201,6.0682-.7899,4.9516,2.0769,8.636,1.271,11.119-2.3374,1.5182-2.2063,1.0082-3.4978-1.6202-3.5638-2.4495-.0615-4.9064.2786-7.3627.365-3.6629.1289-6.9077-.9322-8.9296-4.1424-2.2407-3.5576-2.0795-7.538-1.0472-11.4182.4334-1.629,2.162-1.846,3.6988-1.8468,15.1441-.0079,30.2883.0079,45.4324-.0219,2.5249-.005,3.5275,1.2234,3.5234,3.6361-.0265,15.7596,1.186,31.6484-.4744,47.232-1.0496,9.8516-.5456,19.2294.3654,28.8578.7901,8.3509-.4068,16.7144-.6643,25.0738-.3902,12.662-1.2212,25.3186-1.291,37.9806-.1853,33.6119-.1085,67.2256-.0019,100.8382.0123,3.8721-.6982,7.2997-3.0223,10.3671-1.874,2.4735-3.1988,5.2457-4.4285,8.0666-.4583,1.0514-1.814,2.082-.7003,3.3018.894.9792,2.3206.4948,3.5259.6097,1.7375.1658,2.3204-1.6428,3.8744-2.1833ZM250.6541,687.057c-.0362,4.2553-.8028,7.7405-1.5549,11.2265-1.4628,6.7808,1.3008,10.127,8.2358,9.958,4.6364-.1129,7.0974-3.3232,7.2221-9.652.3338-16.9467-.1174-33.8585-2.4992-50.6724-.1305-.9211.1661-1.6741.6554-2.4195,1.3468-2.0519,2.5778-4.1855,4.0138-6.1718,3.0234-4.182,6.1595-8.2825,9.2223-12.4363.5834-.7912,1.2689-1.7838.389-2.6563-1.0575-1.0486-1.7495.232-2.4454.7579-2.0562,1.5538-4.0719,3.1639-6.0601,4.8045-1.7205,1.4197-4.2029,2.0123-4.4845,4.9634-.1302,1.3648-1.3281,1.0675-2.0909.0272-2.6717-3.6434-6.0106-4.2359-9.4656-1.8608-2.34,1.6086-3.262,4.6068-6.0486,5.8157-.9603.4166.0112,1.3015.4541,1.7425,2.6715,2.6596,2.806,6.0691,2.2447,9.3292-.5995,3.4818-.5397,6.7896.2498,10.1915.9118,3.929.2475,7.828-.6617,11.6734-.226.9558-.6621,1.7758-.0539,2.7929,2.4459,4.0902,1.9064,8.8006,2.6779,12.5865ZM299.4499,576.8062c-4.2179,3.9682-8.6226,7.4707-13.3921,10.5167-2.3732,1.5156-4.4582,1.5176-6.5255-.7958-7.8535-8.7887-14.1798-18.5111-18.5477-29.4814-4.1785-10.4948-6.7495-21.3044-6.926-32.6724-.0273-1.7589.6955-5.234-1.8231-5.0755-2.2009.1385-4.3239,2.7428-4.4361,5.6737-.0703,1.8357.1604,3.6819.2338,5.5243.2125,5.327,1.6281,10.4257,2.9383,15.5439,5.008,19.5627,14.9604,36.232,29.3847,50.3009,1.9701,1.9217,3.7915,2.125,5.6647-.0074,1.7035-1.9392,3.5614-3.7763,5.0266-5.8842,3.0454-4.3814,6.5719-8.4832,8.4025-13.6427ZM245.8534,566.0322c-4.8552-1.5115-9.1288-2.6273-13.242-4.1708-6.8641-2.5756-10.9682-2.671-6.381-12.382.0517-.1095.0584-.2392.1004-.3543,5.4944-15.0807,14.2112-28.0953,26.3047-38.5346,4.4269-3.8213,5.9622-8.5286,8.107-13.5463-1.7184.129-2.5732,1.0717-3.5527,1.7721-17.0854,12.2161-28.8461,28.5392-36.6369,47.8464-1.5567,3.858-2.6803,7.9246-3.6367,11.9814-.9385,3.9808-.0726,5.0788,3.8735,5.9141,6.6274,1.4027,13.3708,1.8954,20.1074,2.3767,1.3927.0995,2.9102.4244,4.9563-.9027ZM230.2409,322.1011c1.0012-.6631,1.3664-.803,1.5859-1.0649,8.6201-10.2872,16.0238-21.4138,22.6855-33.0438.5154-.8996,1.4339-2.2868.5233-3.0195-1.1918-.959-2.1997.4701-3.042,1.2511-1.167,1.082-2.293,2.2414-3.2553,3.5057-5.1382,6.7507-9.4464,14.0407-13.6956,21.3637-1.8949,3.2656-3.6962,6.5839-4.8018,11.0078Z"/>
  <path class="uuid-92cb777f-aa2c-46dc-b5de-45594c72fc8d" d="M385.8199,642.1108c2.7582.3184,4.0041-1.4588,5.6384-2.4232,3.1045-1.8319,4.5623-1.0816,4.7481,2.4393.0454.8595.0186,1.7231.0186,2.5848.0006,70.417.0007,140.834-.0009,211.251,0,1.1077-.0348,2.2155-.0323,3.3233.0053,2.303-1.153,3.3338-3.4339,3.3284-9.3559-.0222-18.712-.0387-28.0677.0096-3.0399.0157-3.2446-1.9019-3.2389-4.1919.0257-10.4641.0085-20.9281.0082-31.3922-.0008-23.021-.0012-46.0419-.0003-69.0628,0-2.3395-.25-4.6557-.4541-6.9842-.3121-3.5603-2.2284-4.4657-5.4259-4.4189-7.1744.1051-9.6585,2.3085-9.5527,9.4343.1606,10.8177-.7201,21.6574.6232,32.4544.1356,1.0898.0398,2.2145-.0113,3.32-.0747,1.6153-.5959,2.5794-2.5404,1.9709-1.4845-.4644-3.3989-.342-3.6386,1.3426-.1932,1.3577,1.321,2.8555,2.8437,2.9283,2.9716.1419,2.1831,1.452,1.2338,2.9938-.9947,1.6157-1.0538,3.3124-.1528,4.9213,2.9616,5.2886,3.3058,11.166,2.9027,16.8674-.8335,11.7889-1.5754,23.5611-1.3132,35.3821.067,3.0201-1.2079,4.503-4.4146,4.468-8.9857-.0985-17.9739-.1005-26.9595-.0012-3.1074.0344-4.2392-1.4076-4.0324-4.2816,1.3973-19.4103-.2111-38.8851,1.256-58.2938.0371-.4906.0568-.9841.0515-1.4759-.2588-23.9998.6804-47.9866.9468-71.9805.2767-24.9145-1.8011-49.7972-.6923-74.687.6515-14.6256-.1328-29.2797,1.236-43.8859.3123-3.3328,1.3496-4.8617,4.8992-4.7912,8.368.1662,16.7418.0103,25.1125.0773,4.2644.0341,4.7992.7132,4.9319,5.0032,1.0164,32.8414,1.6446,65.6882,1.3646,98.5472-.0234,2.7533-.1046,5.0813,3.8692,5.096,7.2859.0269,7.5449.0304,7.9846-4.8746,2.3229-25.9149,1.1871-51.8947,1.5141-77.8476.0883-7.0081.5127-14.0114.7201-21.0187.0994-3.3564,1.3103-4.829,5.0704-5.1002,7.3739-.532,14.7573-.3912,22.1168-.883,3.3635-.2248,5.0509,1.5053,5.1275,4.4055.2047,7.7481.2261,15.5114-.0308,23.257-.1307,3.9391-2.4679,6.8729-5.937,8.7852-1.4933.8231-2.9931,1.6123-4.2884,3.4035ZM342.9863,726.6067c.0967-2.924-.0209-3.2718-1.0133-3.354-6.8752-.5696-9.4523-2.4662-11.4002-8.7181-.5846-1.8763-1.6793-3.2616-3.1015-4.4511-2.0151-1.6854-2.2422-3.4727-1.0353-5.8407,2.0435-4.0092,4.8916-7.339,7.9989-10.5064,1.0793-1.1001,2.3793-2.549-.0119-3.3043-3.1783-1.0039-3.2707-1.8778-.7209-3.9134,1.0009-.799.7294-2.602.0845-3.8195-.5556-1.0488-1.5831-.5211-2.2274.001-5.4245,4.3959-10.1181,9.3323-11.7271,16.4552-.2492,1.1029-.5197,2.2979.6416,3.0009,2.4147,1.4621,1.7722,3.4612,1.1593,5.5177-.5257,1.764-1.3633,3.706.1071,5.2566,2.5665,2.7061,5.4092,5.1603,3.4445,9.4901-.1378.3036.2144.9821.5242,1.3124,2.9565,3.1517,1.5471,8.5553,5.7415,11.1144.3781.2307.453,1.4537.2427,2.0705-1.0863,3.1849.1669,6.0455,1.0305,8.9762.3906,1.3256.7461,2.8956,2.504,2.5974,2.0125-.3414,1.2952-2.0577,1.5459-3.4777.5559-3.1483-3.4136-7.891,2.9288-9.1822.0889-.0181.197-.1805.212-.2875.4607-3.2771,3.4904-5.6992,3.0723-8.9377ZM348.375,738.108c.3776.0896.7551.1791,1.1326.2687,1.067-2.2198,5.7556-2.6001,2.6267-7.0551-1.1824-1.6834.7359-3.0402,2.7592-3.1886,1.7036-.1249,3.4405-.056,5.1048-.3746,1.381-.2643,2.4182-1.2635,2.5745-2.7765.1448-1.4018-.7306-2.3917-1.8801-2.893-3.3651-1.4674-6.86-1.7259-10.3925-.6105-1.15.3631-1.8974,1.2192-1.9082,2.4427-.0419,4.7287-.017,9.4579-.017,14.1869Z"/>
  <path class="uuid-92cb777f-aa2c-46dc-b5de-45594c72fc8d" d="M311.7714,213.701c-2.1747-1.5322-3.665-2.145-4.5907-3.4863-.6222-.9016-.9226-1.7487-.0382-2.6377.727-.7308,1.6558-.8171,2.3254-.1544,6.1656,6.1026,13.5341,2.0845,20.3268,2.2683,4.6123.1248,9.177-1.6003,13.8863-1.7305,3.0895-.0854,4.6359.9873,4.4672,4.2408-1.0574,20.3996-.1737,40.8387-1.2649,61.2415-.5452,10.1943-.3751,20.4126-.6818,30.621-.6098,20.2902-1.5257,40.608-.6708,60.8972.3035,7.2025-4.4797,10.0605-8.6422,13.7794-1.5317,1.3685-3.6153,2.0983-5.3141,3.3065-1.6995,1.2086-2.9867,3.1211-2.1013,5.06.9579,2.0976,3.2992,1.2112,4.9776.7871,3.4364-.8683,4.7259-4.0654,6.6077-6.6168.8063-1.0933,1.1695-3.2296,3.0558-2.5978,1.742.5835,1.7231,2.5968,1.7441,4.1508.0265,1.9564-.3662,3.9144-.4455,5.877-.6173,15.2765.1786,30.5547-.0015,45.8336-.0462,3.9259-1.1471,7.2132-3.9706,9.9557-1.9322,1.8768-3.8598,2.4962-6.147.5779-1.1255-.944-2.3902-1.722-3.5896-2.5782-.9404-.6714-2.2673-1.4146-3.0293-.5395-3.0019,3.447-7.6482,4.7806-11.0586,8.5802,2.9089.5967,5.0007-.7466,7.2197-.9662,5.6334-.5575,10.9178,1.7088,16.4654,1.7495,1.6344.012,2.3293,1.411,2.2971,2.8624-.1829,8.2355-.4218,16.4701-.7156,24.7024-.081,2.2704-1.9378,2.6218-3.6819,2.8677-3.7584.5299-7.5772.7885-11.294,2.8667,1.2908.8636,2.5879.8954,3.8394,1.0669,4.3471.5956,5.3647,1.9229,4.174,6.2041-2.2575,8.1168-5.909,15.6656-10.4789,22.6881-7.2412,11.1276-16.1539,20.7428-27.1855,28.2698-2.09,1.426-4.5076,4.055-6.6336,3.0416-2.1574-1.0284-1.021-4.503-1.0254-6.8902-.0502-27.2049-.0375-54.41.0353-81.6149.0049-1.8365-.9838-4.4338,2.2962-4.9146.1597-.0234.3605-.8688.2774-1.2778-.95-4.6802-.4651-9.1538,1.8068-13.3902.4707-.8777.1477-1.6433-.2168-2.45-4.0144-8.885-4.4771-18.4108-3.8336-27.8057.6633-9.684,1.7994-19.3125,1.7665-29.0621-.1269-37.6684-.0515-75.3375-.0515-113.0063,3.2021-12.8945,1.6095-26.0633,2.3625-39.0977.2679-4.6376,4.778-6.9042,7.9432-9.726,2.1412-1.9088,4.7148-3.0652,8.7884-2.953Z"/>
  <path class="uuid-92cb777f-aa2c-46dc-b5de-45594c72fc8d" d="M459.9289,247.4954c5.2151,1.8398,10.3108,3.913,15.3485,6.1615,4.6172,2.0609,5.3453,3.3361,3.3818,7.8877-4.7077,10.9131-10.6721,21.0429-19.0569,29.5952-.8776.8951-1.8878,1.6986-1.5695,3.1128.3044,1.3527.9389,2.6879,2.2277,3.2359,1.5768.6704,2.3869-.742,3.2999-1.7167,10.2239-10.9143,17.7323-23.4906,23.0366-38.1239,1.1429,2.2321,1.1792,4.0906,1.1796,5.9522.0055,26.4581.0197,52.9162.0003,79.3743-.0036,4.945-1.1903,6.1416-6.0928,6.1546-13.4135.0356-26.8272.0202-40.2409.0124-6.3016-.0037-6.7819-.5568-6.782-7.038-.0003-23.4863-.0215-46.9726-.0567-70.4588-.0046-3.0657-.1231-6.1315-.2128-9.1966-.0923-3.1566-1.1482-5.4098-4.3631-6.9241-14.7593-6.9522-29.9914-11.7491-46.5175-11.3301-6.5008.1648-13.0435-.512-19.4691,1.182-2.7054.7132-3.6676-.7008-3.144-3.2687,1.5698-7.699,5.1364-13.9799,11.2762-19.2666,14.0475-12.0955,30.3855-16.5605,48.4699-16.2875,17.4717.2638,34.8685-1.9088,52.3494-1.6531,4.3665.0639,8.5442.8599,12.7609,1.6935,2.4658.4875,3.6216,2.2229,3.5637,4.5024-.3121,12.2888-.6098,24.5815-1.2255,36.8572-.2132,4.25-.7297,4.1357-4.8866,2.9272-7.5624-2.1986-15.2433-3.838-23.2771-3.3846ZM404.4164,233.9635c1.9487-.2052,2.6205-1.1754,3.4787-1.8216,3.8289-2.8828,7.5631-5.8976,11.474-8.6632,2.8539-2.0181,5.3725-1.5967,7.6208,1.3815,9.8158,13.0026,16.3872,27.3521,18.8746,43.5417.93,6.0528,1.4773,12.3867,6.7961,16.8141.7397-1.2755.4528-2.53.4428-3.7282-.1026-12.3224-2.7037-24.1085-7.2881-35.5437-4.7201-11.7735-11.1885-22.3954-19.7462-31.75-1.4932-1.6322-3.3583-1.9628-4.8967-.4627-6.1509,5.998-11.9188,12.3385-16.756,20.2322ZM468.6885,325.9865c4.3065,1.588,8.2429,2.4417,12.2304,2.9457,2.6077.3296,4.0557-.9577,3.4273-3.7397-2.1483-9.5096-5.5383-18.5558-10.2714-27.0898-1.4232-2.5662-2.808-2.2618-4.3722-.0779-1.1073,1.5459-.7583,2.9268-.0528,4.4771,1.8298,4.0211,3.5557,8.0894,5.3322,12.1348,3.218,7.3277,2.5321,8.8144-4.9544,10.7233-.2285.0583-.4359.1997-1.339.6266ZM439.9645,334.476c-1.0994-.0549-2.2241-.1545-3.0589.773-.6186.6872-1.0055,1.8466-.3794,2.3141,2.2921,1.7115,4.853,3.062,7.6026,3.8679.9293.2724,1.2795-.8485,1.4582-1.7376.6596-3.2816-1.1891-5.0082-5.6224-5.2174Z"/>
  <path class="uuid-92cb777f-aa2c-46dc-b5de-45594c72fc8d" d="M355.5199,312.8747c-.6475-20.2783.0232-39.6234,1.6229-58.9706,2.3989,6.4473,4.61,12.8736,8.0497,18.9367-.6785-4.6673-.9122-9.3208-.9015-13.99.0165-7.2049-.0379-7.4129,7.1564-8.2322,10.9507-1.247,21.8536-.7101,32.6104,1.865.833.1994,1.6487.4979,2.4451.8181,1.3565.5453,1.6338,1.6981,1.6347,3.0145.001,1.4157-.6424,2.1381-2.004,2.6737-10.1594,3.9963-18.3304,10.9205-25.9824,18.4025-9.9421,9.7212-17.6747,21.0486-23.0199,33.9443-.119.2871-.4803.4739-1.6115,1.5381Z"/>
  <path class="uuid-92cb777f-aa2c-46dc-b5de-45594c72fc8d" d="M342.076,495.6673c.0788,4.3951,1.732,8.1866,1.7438,12.407.0322,11.5463-.709,23.1094.4235,34.642.1291,1.3145-.0937,2.6809-1.2203,3.2756-1.5527.8197-2.1767-.8905-2.7254-1.7647-1.9838-3.1605-4.7744-5.5363-7.8447-9.0233.4956,3.5769,2.3239,5.5027,3.3385,7.7475,1.1666,2.5811,2.3137,5.1506,3.182,7.8521.7685,2.3911.0286,3.8277-2.4271,4.346-14.1244,2.9812-28.2874,3.2647-42.4843.5557-1.7737-.3385-3.3744-.9872-3.3834-3.2204-.0085-2.1107.7852-3.5999,3.0996-2.5465,2.6605,1.2109,4.6536.326,6.7924-1.1718,17.8716-12.516,31.2713-28.5644,39.0445-49.1052.5036-1.3307.8558-2.7937,2.4608-3.9941Z"/>
</svg>